<svg xmlns="http://www.w3.org/2000/svg" xml:space="preserve" viewBox="0 0 600 400"><path fill="#8e918f" d="M577 341.3c0 26.4-125 47.7-279.5 47.7S17.9 367.7 17.9 341.3c0-26.3 125.2-47.7 279.6-47.7 154.4 0 279.5 21.4 279.5 47.7"/><path fill="#494b4c" d="m203.3 343.5-.2-.1c-22.8-1.3-46-1.6-68.7.3v-.3l-.1-4.3c22.9 1.4 46.4-.2 69.4-.8-.3 0-.5.3-.6.7 0 1.5 0 3 .2 4.5M190.7 61.7c-.6 1.2-.9 2.5-1 4a225.5 225.5 0 0 0-42.6-.8c0-1.5-.2-3.1-.4-4.7 14.4 1.2 29.5 2.1 44 1.5M172.5 58c.1.3.3.4.5.5l-7.5-.1c.2-2.4.4-5 .3-7.4h2.8l.7.2h2.2a15 15 0 0 0 1 6.8m0-13.4c8.2-.7 17.6-5 16.9-14.6-.8-9.8-11.9-13.6-20.3-13.7-8.8 0-16.9 5-16.2 14.7.8 9.6 10.2 15.1 19 14 .3 0 .5-.2.6-.4m19.9-13c.3 13.6-12.2 16.3-23.1 17-.3 0-.4 0-.6.2-9.6-1.5-19-6.7-19.4-17.6-.4-12 10.1-18.7 21.1-18.4 10.9.3 21.7 7 22 18.9m10.1 304.1h-15c-17.8 0-35.8 0-53.3 1.6l3-7.7c1-2.2 2.3-4.5 3.1-6.8h.1c3.4 0 6.8 0 10.2-.3v3.4c0 .5.3 1 .7 1.1l.3.3c3.9 1 8 1 12 1h3c5.8 0 11.6.1 17.4-.2 1 0 1.4-1 1.2-1.7.6-.2 1-.6 1-1.4v-1.5l3.8-.1 5.7.1c2 4.1 4.3 8.3 6.8 12.2"/><path fill="#494b4c" d="M156 114.3c0-4 .4-8.1.4-12.2 0-.8-1.2-1-1.4-.2-1.3 3.9-1 8.7-.4 12.6.1.9 1.5.7 1.5-.2m4-14.8c.2-1-1.3-1-1.6-.2-1.2 3-1 6.8-.3 10 .1.7 1.3.6 1.2-.2-.2-3.3.4-6.3.8-9.6m13 205.9a17 17 0 0 0 2-10.1c-.1-1-1.7-.8-1.7.2a24 24 0 0 1-1.5 9.2c-.3.8.8 1.5 1.2.7m6.3-1.2c0-2.4.6-4.7.5-7 0-.9-1.2-1-1.5-.2a34 34 0 0 0-.3 14.2c0 .8 1.3.8 1.3 0v-7m3.8 21v.3c-5.5-.3-11.1-.2-16.7-.1h-2.9c-3.4 0-7-.1-10.3.5l-.5-130.1-.3-65.1-.1-31.3c0-10.6.6-21.7-.5-32.4a355 355 0 0 0 32.3 1c-2.3 21.2-1.5 42.9-1.7 64.2l-.1 63.9c0 43 .3 86 .8 129"/><path fill="#faea7e" d="M174.7 27c.8.6 1.9-.4 1.1-1.2a17.5 17.5 0 0 0-9.1-4.2c-.6-.1-1 .8-.3 1a20 20 0 0 1 8.3 4.3m5.3-.9c.8.7 2-.5 1.1-1.1a19.7 19.7 0 0 0-9.2-4.3c-.6-.1-1 .8-.3 1 3.2.9 6 2.3 8.4 4.4m6.2.5c5.5 11-8 16.1-16.2 16-.7 0-1 .4-1 1-6.8-1.1-13.5-4.8-14-12.5-.5-8.3 6.4-12.5 14.1-12.5 6.2 0 14 2 17 8"/><path fill="#040606" d="M183.3 325.5v-.4a12536 12536 0 0 1-.7-193c.2-21.2-.6-42.9 1.7-64a355 355 0 0 1-32.3-1c1.1 10.6.4 21.7.5 32.3l.1 31.3c0 21.7.2 43.4.3 65l.5 130.2a52 52 0 0 1 10.3-.5h3c5.5 0 11-.2 16.6 0m-49.1 12c17.5-1.6 35.5-1.6 53.3-1.6h15c-2.5-3.9-4.7-8-6.8-12.2a64 64 0 0 0-5.7-.1h-3.7v1.6c0 .8-.5 1.2-1 1.4.1.7-.3 1.6-1.3 1.7-5.8.3-11.6.1-17.4.1h-3c-4 0-8.1.1-12-1a.4.4 0 0 1-.3-.2c-.4-.2-.7-.6-.7-1.1v-3.4c-3.4.3-6.8.3-10.2.3l-3.1 6.8c-1.2 2.6-2 5.2-3.1 7.7m69 6h.1l-.2-4.4c0-.4.3-.6.6-.7-23 .6-46.5 2.2-69.4.8l.1 4.3v.3c22.8-2 46-1.6 68.7-.3m1.9-7.6c1.3.1 1.4 2 .3 2.3a1 1 0 0 1-.8.3c.2.1.3.3.4.6a47 47 0 0 1-.3 5.3c0 .3-.2.5-.5.5 0 .5-.4.9-1 .8-23.2-.9-46.4-.5-69.6-.3-.8 0-1-.7-.6-1.2a.9.9 0 0 1-.4-.7c0-1.6 0-3.2.2-4.8-.7-.2-1.2-.8-1-1.5a35 35 0 0 1 7.6-15c-.3-.8.1-1.8 1.1-1.8 3.4 0 6.8 0 10.2.3l-.4-124.8-.3-65.1V99.4c-.1-10.7-.9-21.8.2-32.5l-3.6-.2c-.6 0-.8-.6-.8-1l-.1-.4 1.5-.4c13.8-.9 28.9-1.1 42.7.7l1.4.2-.1.8c0 .6-.4 1.2-1 1.2l-3.2.1c-2.8 42.5-1.4 85.6-1.4 128.2 0 41.9.3 83.8.7 125.7 3.1-1 7-.7 10-.3.7 0 1 .8 1 1.4a140 140 0 0 1 7.8 13M169.3 48.6c10.9-.7 23.4-3.4 23-17-.2-11.7-11-18.5-21.9-18.8-11-.3-21.5 6.4-21 18.4.3 11 9.7 16.1 19.3 17.6l.6-.2m25.9-17c.2 13.4-10.4 18.2-21.5 19.3-.2 2.3 0 4.4.6 6.6.2.5 0 .9-.4 1h-1a.9.9 0 0 1-.4-.5 15 15 0 0 1-1-6.9 122.4 122.4 0 0 1-3 0l-2.7-.1c.1 2.4 0 5-.3 7.4h-1.4c-.2-2.5-.4-5.1-.3-7.7a21.4 21.4 0 0 1-17.3-18.6c-1-13.7 10.3-22 23-22.1 12.7-.2 25.4 8 25.7 21.7"/><path fill="#040606" d="M192 59.7c.8-.9 2.4.3 1.7 1.3-1 1.5-2 3-2.5 4.8l-1.4-.2c0-1.4.3-2.7 1-4a341 341 0 0 1-44.1-1.4l.4 4.7-1.5.4c-.5-1.9-1-3.9-1.2-5.8-.1-1 1.2-1.3 1.8-.7l.3-.1c5.8-.2 11.7-.3 17.6-.3h1.4l7.5.1h.9c6 .2 12 .6 17.9 1.2h.2m-22-17.3c8.3.2 21.7-4.9 16.2-15.9-3-6-10.9-8-17.1-8-7.7 0-14.6 4.2-14 12.5.4 7.7 7 11.4 13.8 12.4 0-.5.4-1 1-1M189.5 30c.7 9.7-8.7 14-16.9 14.6 0 .2-.3.4-.5.4-9 1.1-18.3-4.4-19-14-.8-9.7 7.3-14.7 16.1-14.7 8.4.1 19.5 3.9 20.3 13.7"/><path fill="#040606" d="M181.1 24.9c.8.6-.3 1.8-1.1 1.1-2.5-2-5.2-3.5-8.4-4.4-.6-.2-.3-1.1.3-1 3.4.6 6.6 2 9.2 4.3M180 297.2c.1 2.3-.4 4.6-.5 7v7c0 .8-1.2.8-1.3 0a34 34 0 0 1 .3-14.2.8.8 0 0 1 1.5.2m-4.2-271.4c.8.8-.3 1.8-1 1.1a20 20 0 0 0-8.4-4.3c-.6-.2-.3-1.1.3-1a17 17 0 0 1 9.1 4.2m-.5 269.5c.5 3.4-.6 7-2.1 10.1-.4.8-1.5.1-1.2-.7 1.3-3 1.4-6 1.5-9.2 0-1 1.6-1.3 1.8-.2m-16.8-196c.3-.8 1.8-.8 1.7.2-.4 3.3-1 6.3-.8 9.6.1.8-1.1 1-1.2.2-.6-3.2-1-7 .3-10m-2.1 2.8c0 4-.4 8.1-.3 12.2 0 .9-1.4 1-1.5.2-.6-4-.9-8.7.4-12.6.2-.8 1.4-.6 1.4.2"/><path fill="#494b4c" d="m460.6 343.5-.1-.1c-22.9-1.3-46-1.6-68.8.3v-.3l-.1-4.3c23 1.4 46.4-.2 69.4-.8-.3 0-.5.3-.5.7-.1 1.5 0 3 .1 4.5M448 61.7c-.5 1.2-.8 2.5-.9 4a225.5 225.5 0 0 0-42.7-.8c0-1.5-.2-3.1-.4-4.7 14.4 1.2 29.6 2.1 44 1.5M429.9 58c0 .3.2.4.4.5l-7.4-.1c.2-2.4.4-5 .3-7.4h2.7l.7.2h2.2a15 15 0 0 0 1 6.8m.1-13.4c8.2-.7 17.5-5 16.8-14.6-.8-9.8-11.9-13.6-20.3-13.7-8.8 0-16.9 5-16.1 14.7.7 9.6 10.1 15.1 19 14 .3 0 .5-.2.6-.4m19.8-13c.3 13.6-12.2 16.3-23 17-.3 0-.5 0-.7.2-9.6-1.5-19-6.7-19.4-17.6-.4-12 10.1-18.7 21.2-18.4 10.8.3 21.6 7 21.9 18.9m10.1 304.1h-15c-17.8 0-35.7 0-53.3 1.6l3.1-7.7c1-2.2 2.2-4.5 3-6.8h.2c3.3 0 6.8 0 10.1-.3v3.4c0 .5.3 1 .7 1.1l.3.3c3.9 1 8 1 12 1h3c5.8 0 11.6.1 17.4-.2 1 0 1.4-1 1.2-1.7.6-.2 1.1-.6 1.1-1.4v-1.5l3.7-.1 5.7.1c2.1 4.1 4.3 8.3 6.8 12.2"/><path fill="#494b4c" d="M413.4 114.3c-.1-4 .4-8.1.4-12.2 0-.8-1.2-1-1.5-.2-1.2 3.9-1 8.7-.4 12.6.2.9 1.5.7 1.5-.2m4.1-14.8c0-1-1.3-1-1.6-.2-1.3 3-1 6.8-.4 10 .1.7 1.3.6 1.3-.2-.3-3.3.4-6.3.7-9.6m13 205.9c1.6-3 2.6-6.7 2-10.1 0-1-1.6-.8-1.7.2 0 3.3-.1 6.1-1.5 9.2-.3.8.8 1.5 1.2.7m6.3-1.2c.1-2.4.6-4.7.5-7 0-.9-1.2-1-1.5-.2a34 34 0 0 0-.3 14.2c.1.8 1.4.8 1.3 0v-7m3.8 21v.3c-5.5-.3-11-.2-16.6-.1h-3c-3.4 0-7-.1-10.3.5l-.5-130.1-.3-65.1V99.4c-.1-10.6.6-21.7-.5-32.4a355 355 0 0 0 32.2 1c-2.2 21.2-1.5 42.9-1.6 64.2-.2 21.3-.2 42.6-.2 63.9 0 43 .3 86 .8 129"/><path fill="#faea7e" d="M432 27c.8.6 2-.4 1.2-1.2a17.5 17.5 0 0 0-9.2-4.2c-.6-.1-.9.8-.3 1a20 20 0 0 1 8.4 4.3m5.2-.9c.8.7 2-.5 1.2-1.1a19.7 19.7 0 0 0-9.2-4.3c-.7-.1-1 .8-.3 1 3.1.9 5.8 2.3 8.3 4.4m6.2.5c5.5 11-8 16.1-16.2 16-.6 0-1 .4-1 1-6.8-1.1-13.4-4.8-14-12.5-.5-8.3 6.5-12.5 14.1-12.5 6.3 0 14 2 17.1 8"/><path fill="#040606" d="m440.7 325.5-.1-.4a12463.3 12463.3 0 0 1-.6-193c.1-21.2-.6-42.9 1.6-64a355 355 0 0 1-32.2-1c1 10.6.4 21.7.4 32.3l.1 31.3.3 65 .5 130.2a52 52 0 0 1 10.4-.5h2.9c5.5 0 11.1-.2 16.7 0m-49.2 12c17.6-1.6 35.5-1.6 53.3-1.6h15c-2.5-3.9-4.7-8-6.8-12.2a64 64 0 0 0-5.7-.1h-3.7v1.6c0 .8-.5 1.2-1 1.4.1.7-.3 1.6-1.3 1.7-5.8.3-11.6.1-17.3.1h-3c-4 0-8.2.1-12-1a.4.4 0 0 1-.4-.2c-.4-.2-.7-.6-.7-1.1v-3.4c-3.3.3-6.8.3-10.1.3h-.1c-.9 2.3-2 4.6-3.1 6.8l-3 7.7m68.9 6h.1c0-1.4-.2-2.9-.1-4.4 0-.4.2-.6.5-.7-23 .6-46.5 2.2-69.4.8l.2 4.3v.3c22.7-2 45.8-1.6 68.7-.3m1.8-7.6c1.3.1 1.4 2 .3 2.3a1 1 0 0 1-.8.3c.2.1.4.3.4.6a47 47 0 0 1-.3 5.3c0 .3-.2.5-.4.5-.1.5-.4.9-1 .8-23.3-.9-46.4-.5-69.7-.3-.7 0-.9-.7-.6-1.2a.9.9 0 0 1-.4-.7c0-1.6 0-3.2.2-4.8-.6-.2-1.2-.8-1-1.5a35 35 0 0 1 7.6-15c-.2-.8.2-1.8 1.2-1.8 3.3 0 6.7 0 10.1.3l-.4-124.8-.2-65.1-.1-31.3c0-10.7-.9-21.8.2-32.5l-3.5-.2c-.6 0-.9-.6-.9-1v-.4l1.4-.4c13.9-.9 29-1.1 42.7.7l1.5.2-.2.8c0 .6-.4 1.2-1 1.2l-3.2.1c-2.8 42.5-1.3 85.6-1.3 128.2 0 41.9.2 83.8.7 125.7 3-1 7-.7 9.9-.3.8 0 1.1.8 1 1.4 2.8 4.1 5.5 8.5 7.8 13M426.6 48.6c11-.7 23.4-3.4 23.1-17-.3-11.7-11-18.5-22-18.8-11-.3-21.5 6.4-21 18.4.3 11 9.7 16.1 19.3 17.6l.6-.2m26-17C452.7 45 442.1 49.9 431 51c-.1 2.3 0 4.4.6 6.6.2.5 0 .9-.4 1h-.9a.9.9 0 0 1-.4-.5 15 15 0 0 1-1-6.9l-2.3.1c-.3 0-.5 0-.7-.2h-2.7c0 2.4-.1 5-.3 7.4h-1.5c-.2-2.5-.4-5.1-.3-7.7A21.4 21.4 0 0 1 404 32.1c-1-13.7 10.2-22 22.9-22.1 12.7-.2 25.4 8 25.7 21.7"/><path fill="#040606" d="M449.4 59.7c.8-.9 2.3.3 1.6 1.3-1 1.5-2 3-2.4 4.8l-1.5-.2c0-1.4.4-2.7 1-4-14.5.7-29.7-.2-44.1-1.4.2 1.6.4 3.2.4 4.7l-1.5.4c-.5-1.9-.9-3.9-1.2-5.8 0-1 1.3-1.3 1.9-.7l.3-.1a502 502 0 0 1 17.5-.3h1.5l7.4.1h1c6 .2 12 .6 17.8 1.2h.2m-22-17.3c8.3.2 21.7-4.9 16.2-15.9-3-6-10.8-8-17-8-7.7 0-14.7 4.2-14.1 12.5.5 7.7 7.1 11.4 13.9 12.4 0-.5.4-1 1-1M446.7 30c.7 9.7-8.6 14-16.8 14.6-.1.2-.3.4-.6.4-8.9 1.1-18.3-4.4-19-14-.8-9.7 7.3-14.7 16.1-14.7 8.4.1 19.5 3.9 20.3 13.7"/><path fill="#040606" d="M438.5 24.9c.8.6-.4 1.8-1.2 1.1-2.5-2-5.2-3.5-8.3-4.4-.7-.2-.4-1.1.3-1 3.4.6 6.5 2 9.2 4.3m-1.2 272.3c.1 2.3-.4 4.6-.5 7v7c0 .8-1.2.8-1.3 0a34 34 0 0 1 .3-14.2.8.8 0 0 1 1.5.2m-4.1-271.4c.7.8-.4 1.8-1.1 1.1a20 20 0 0 0-8.4-4.3c-.6-.2-.3-1.1.3-1 3.3.5 6.7 1.9 9.2 4.2m-.6 269.5c.5 3.4-.5 7-2 10.1-.5.8-1.6.1-1.3-.7 1.4-3 1.4-6 1.5-9.2 0-1 1.6-1.3 1.8-.2m-16.7-196c.3-.8 1.7-.8 1.6.2-.3 3.3-1 6.3-.7 9.6 0 .8-1.2 1-1.3.2-.6-3.2-.9-7 .4-10m-2.1 2.8c0 4-.5 8.1-.4 12.2 0 .9-1.3 1-1.5.2-.6-4-.8-8.7.4-12.6.3-.8 1.5-.6 1.5.2"/><path fill="#2f3031" d="M421.4 120.2c.3-.7-.6-1.4-1-.8a44 44 0 0 0-5.6 12.8c-.1.5.6.7.8.3 2-4 4.2-8.2 5.8-12.3m3.6.4c.3-.9-1.2-1.4-1.5-.5-1.1 2.6-2 5.6-2.7 8.3-.2.6.7 1 1 .4 1.1-2.7 2.4-5.4 3.2-8.2m28.2-40.3a210 210 0 0 1 1.7 17.5.8.8 0 0 0-1 .5 189 189 0 0 0-13.1 35 1091 1091 0 0 0-31.6 2.6c8.2-17.3 15.2-35.2 22.2-53v-.3l20.2-1.2c1 0 1.5-.8 1.5-1.5h.1v.4m-58.6 4.4c-6.2 18-12.1 36-18 54l-1 .2-27.8 2c6.8-17.8 13.7-35.6 20-53.6a1 1 0 0 0 0-1l26.8-1.6m-61.5 3.6v.2a1 1 0 0 0-1 .8 498.6 498.6 0 0 1-18.1 54.1l-16 1.2-17.1 1.1c3.8-9 6.5-18.8 9.8-28.1 3.2-9.2 7-18.2 10-27.4l32.4-1.9m-102.8 6 32.2-1.9c-5.3 19.3-13 37.3-20.4 56l-21.6 1.3-12 .8c6.3-19.1 15-37.3 21.8-56.2M185 108.6c.5-.8-.7-1.6-1.3-.9-1.7 2-3 4.7-4.4 7-.3.5.5 1.1 1 .6 1.5-2.1 3.5-4.3 4.7-6.7m2.4 3.7c.5-1-.9-1.6-1.4-.8a109 109 0 0 0-5.8 10.6c-.3.6.5 1.1.9.6 2.2-3.3 4.4-6.9 6.3-10.4m-18.1-14.1 27-1.8c-7 18.5-14.8 37-20 56-10.8.5-21.7.8-32.3 2.3 8.5-18.9 16.2-38 25.3-56.5"/><path fill="#040606" d="M143.8 150.7a413 413 0 0 1 23-52.4c-8.3.4-16.7.6-25 .6 1 17.1 2 34.6 2 51.8m52.4-54.3-27 1.8c-9 18.6-16.7 37.6-25.2 56.5 10.6-1.5 21.5-1.8 32.3-2.3 5.2-19 13-37.5 20-56m31.8-2-8.7.5-20.9 1.4c-6.7 18.6-12.7 38-21 56l4.2-.2 25.3-1.6c2-9.3 6.1-18.2 9.6-27 3.8-9.8 7.4-19.5 11.5-29.1m34.4-2-32.2 1.9c-6.7 18.9-15.5 37.1-21.7 56.2l11.9-.8 21.6-1.4c7.4-18.6 15-36.6 20.4-55.9m36-2h-2.1l-31.6 1.9c-5 19-11.4 38.8-21.4 56l36-2.5c2-9.4 5.7-18.8 8.9-28 3.2-9.1 6.3-18.5 10.3-27.5m67.5-3.9-33 2-32.4 1.8c-3 9.2-6.8 18.2-10 27.4-3.3 9.3-6 19-9.8 28.1l17.1-1.1 16-1.2a498.6 498.6 0 0 0 18.2-54.1 1 1 0 0 1 1-.8c.6 0 1.2.4 1 1.2a271.9 271.9 0 0 1-18.8 53.6l31.1-2.2v-.5A520 520 0 0 1 366 86.4m28.5-1.6-26.9 1.5c.2.3.3.6.2 1-6.4 18-13.3 35.8-20 53.7l27.7-2.1 1-.1c5.9-18 11.8-36.1 18-54m34.7-2-32.8 1.8v.6c-4.8 18-11 36.1-18.1 53.4 9.7-.7 19.4-1.7 29.1-2.6 7-17.9 14.7-35.5 21.8-53.3M455 107v-6.5a1234 1234 0 0 0-12.7 32.8l10.6-.5h.4c.4-8.6 1.7-17.2 1.7-25.8m.9-27a133 133 0 0 1-1 53.7c0 .2-.2.4-.3.5 0 .8-.4 1.6-1.5 1.8-25.5 3.5-51.7 4.4-77.4 6.4a10260.1 10260.1 0 0 1-193.9 13.1c-12.9.8-26 2.2-38.8 1.7-.7 0-1.1-.5-1.2-1-.2-.1-.3-.3-.3-.6-1.9-19-2.2-38.4-2.6-57.4 0-1 .8-1.5 1.5-1.4l.5-.2c25.8-3.3 52.3-3.6 78.2-5.1l77-4.6 155.1-9c1.3 0 2 1 1.8 2 0 .7-.5 1.5-1.5 1.5l-20.1 1.2v.4c-7.1 17.7-14 35.6-22.3 52.9 10.5-1 21-2 31.6-2.5 3.2-12 7.7-24 13-35.1.3-.5.7-.6 1-.5a210 210 0 0 0-1.6-18c.2-1.3 2.5-1.3 2.8.3"/><path fill="#f9cb17" d="m455 100.5.1 6.5c0 8.6-1.3 17.2-1.7 25.9h-.4c-3.5 0-7 .2-10.6.4 4.1-11 8.2-22 12.6-32.8m-58.5-15.9 32.8-1.9c-7.1 17.8-14.9 35.4-21.8 53.3-9.7 1-19.4 1.9-29.1 2.6a446.8 446.8 0 0 0 18-54"/><path fill="#040606" d="M423.5 120c.3-.8 1.8-.3 1.5.6-.8 2.8-2 5.5-3.2 8.2-.3.5-1.2.2-1-.4.8-2.7 1.6-5.7 2.7-8.3m-3.1-.7c.4-.6 1.3.1 1 .8-1.6 4.1-3.8 8.3-5.8 12.3-.2.4-1 .2-.8-.3 1.2-4.3 3-9 5.6-12.8"/><path fill="#f9cb17" d="M353.6 98.1c.4-1-1-1.7-1.5-.7-1.7 3.2-3 6.6-4.4 10-.3.6.6 1.1 1 .5 1.7-3.2 3.5-6.4 4.9-9.8m3 5.1c.4-.8-.7-1.6-1.3-.9-2.6 3.2-4 7.5-5 11.4-.3.7.8 1 1 .2 1.4-3.9 3.5-7.1 5.3-10.7m-23.5-14.9 33-1.9a520 520 0 0 0-19.6 54.7l-31.1 2.2c8.3-17 14.3-35.3 18.8-53.6.2-.8-.4-1.3-1-1.2v-.2"/><path fill="#040606" d="M355.3 102.3c.6-.7 1.7.1 1.3 1-1.8 3.5-4 6.7-5.2 10.6-.3.7-1.4.5-1.2-.2 1-4 2.5-8.2 5.1-11.4m-3.2-4.9c.5-1 1.9-.2 1.5.7-1.4 3.4-3.2 6.6-5 9.8-.3.6-1.2.1-1-.5 1.5-3.4 2.8-6.8 4.5-10"/><path fill="#f9cb17" d="M277.8 123.1c.5-1-.9-1.6-1.5-.7a15.6 15.6 0 0 0-2 9.2c0 .7 1.1.7 1.1 0 0-3.2 1-5.7 2.4-8.5m4.5 3.2c.5-.9-.8-1.7-1.4-1a17 17 0 0 0-3.7 12.2c0 1 1.3.8 1.4 0 0-4.4 1.5-7.6 3.7-11.2m14-35.8 2.3-.2c-4 9-7.1 18.4-10.3 27.6-3.2 9.1-6.8 18.5-8.8 28l-36.1 2.3a217 217 0 0 0 21.4-56l31.6-1.7"/><path fill="#040606" d="M280.9 125.3c.6-.7 2 .1 1.4 1a21.2 21.2 0 0 0-3.7 11.1c0 1-1.3 1-1.4.1-.3-4.2.8-9 3.7-12.2m-4.6-2.9c.6-1 2-.3 1.5.7a18.6 18.6 0 0 0-2.4 8.4c0 .8-1 .8-1.1.1-.2-3.1.3-6.6 2-9.2"/><path fill="#f9cb17" d="m219.4 94.9 8.7-.5c-4 9.6-7.7 19.3-11.5 29-3.5 8.9-7.5 17.8-9.6 27.1l-25.3 1.6-4.1.2c8.2-18 14.2-37.4 21-56l20.8-1.4"/><path fill="#040606" d="M186 111.5c.5-.8 2-.2 1.4.8-1.9 3.5-4 7.1-6.3 10.4-.4.5-1.2 0-1-.6a158 158 0 0 1 5.9-10.6m-2.3-3.8c.6-.7 1.8.1 1.3 1-1.2 2.3-3.2 4.5-4.8 6.6-.4.5-1.2 0-1-.7 1.5-2.2 2.8-4.8 4.5-6.9"/><path fill="#f9cb17" d="M166.9 98.3a413 413 0 0 0-23 52.4c0-17.2-1.1-34.7-2.1-51.8 8.3 0 16.7-.2 25-.6"/><path fill="#2f3031" d="M164.5 221.6c.7-.6-.1-1.9-1-1.4-3.7 2.1-6.3 6-7.7 10-.3.7.8 1 1.2.3 1.6-3.7 4.3-6.3 7.5-8.9m.5 5.2c.5-.8-.5-1.8-1.2-1-2.7 2.7-4.9 6.4-7.1 9.6-.3.4.3 1 .7.6 2.6-2.9 5.6-5.9 7.6-9.2m24.4-42.3a698.4 698.4 0 0 0-31 57.2l-15.6-.2c-.4 0-.6.1-.8.3.7-9.2.8-18.6 1.3-27.8 5.5-10.7 11.2-21.3 16.6-32l29.5 2.5m33.7 2.5 33.4 2a817.3 817.3 0 0 0-31.4 56l-4.4-.2-28-1.6c5.9-9.6 11-19.8 16.4-29.7 4.7-8.8 9.7-17.6 14-26.6m62.9 19.3c.5-.8-.6-1.7-1.3-1.1-3.5 3-6.2 7.2-8.3 11.3-.3.5.5 1 .8.5 2.5-4 5.7-7.2 8.7-10.7m4.5-.5c.7-1-.9-2-1.6-1-1.9 2.7-3.7 5.6-5.4 8.5-.4.6.5 1.2 1 .6 2-2.6 4.1-5.3 6-8.1m9.3-13.8 21 1.6c-10.7 17.8-20 36.7-29.5 55.3l-35-2c10-18.9 21-37.1 31.5-55.7l12 .8m59.5 4.4 28.4 2-30 54.6-28.8-1.8c5.3-9 9.8-18.4 14.8-27.5 5.2-9.1 10.5-18.1 15.6-27.3m94.5 6.9c-.2.2-.2.4-.3.7-10.6 18-20.4 36.2-31.7 53.7l-28.7-2.2c5.3-8.7 9.7-18 14.8-26.7 5.3-9.2 11-18.1 16.4-27.2v-.5l29.5 2.2"/><path fill="#040606" d="m158 181.7-10.2-1c0 .5-.1 1-.7 1.4-2.9 1.9-2.6 14.4-2.8 17.6l-.7 9.8c3.9-9.6 8.8-19.2 14.3-27.8m.5 60a698.4 698.4 0 0 1 31-57.2c-9.8-.8-19.7-1.6-29.5-2.6-5.4 10.8-11 21.4-16.6 32-.5 9.3-.6 18.7-1.3 28 .2-.3.4-.4.8-.4 5.2 0 10.4 0 15.6.2m47.6-27.2c5-9.3 9.9-18.7 15.4-27.7l-30.5-2.2c-9.9 19.2-20.2 38-30 57.2 9.9.3 19.8.8 29.8 1.3v-.4c4.7-9.6 10.2-18.9 15.3-28.2m50.5-25.5-33.4-2c-4.3 9-9.3 17.7-14 26.5-5.4 9.9-10.5 20-16.4 29.7l28 1.6 4.4.2a817.3 817.3 0 0 1 31.4-56m-2.8 57.6a580 580 0 0 1 32.6-55.6l-28.2-1.9c-9 19-19.6 38.2-31 56l26.6 1.5m67-53.1-21-1.6-12-.8c-10.4 18.6-21.4 36.8-31.5 55.6l35 2c9.5-18.5 18.8-37.4 29.5-55.2m36.8 2.7-35.5-2.6c-8.5 18.8-18.6 37-28.3 55.3l3.5.2 29.4 1.8a343.6 343.6 0 0 1 31-54.7m30 2.2-28.4-2c-5 9-10.4 18-15.6 27.2-5 9-9.5 18.5-14.8 27.5l28.9 1.8c9.8-18.2 20-36.3 29.9-54.5m17.7 30A284 284 0 0 1 423 201l-33.9-2.5a438 438 0 0 1-28.9 54.6c10.3.6 20.5 1.4 30.7 2.1 3.8-9.2 9.3-18 14.4-26.7m48.1-24.6c0-.3.1-.5.3-.7l-29.5-2.2v.5c-5.5 9-11.1 18-16.4 27.2-5.1 8.7-9.5 18-14.8 26.7l28.7 2.2c11.3-17.5 21.1-35.8 31.7-53.7m-2.8 56.3c.5-18 5.4-35.6 3.1-53.6a433 433 0 0 1-29.4 51.2l26.3 2.4m5.7-56.5a96.6 96.6 0 0 1 0 29.4c-1 9.3-1.9 18.8-3.8 28 .4.8 0 2.1-1.3 2-51.4-3.3-102.8-7.5-154.2-10.6-25.5-1.6-51-3-76.5-4.4-26-1.3-52-1.8-77.8-4-.6 0-1-.4-1.1-.8-.6.7-2 .4-2-.8-.8-12.5.2-25.3 1.1-37.9l1.6-17.6c.3-2.8.3-5.4 2.5-7-.6-.6-.2-2 1-1.9 51.4 1.8 102.8 7.2 154.1 10.8L454.1 200c1.4.1 1.8 1.7 1.2 2.6.5 0 1 .4 1 1.1"/><path fill="#f9cb17" d="M453.7 206.6c2.3 18-2.6 35.7-3.1 53.6a1966 1966 0 0 0-26.3-2.4 433 433 0 0 0 29.4-51.2M377.6 237c.5-.6-.6-1.6-1.2-1a35.8 35.8 0 0 0-8 13c-.2.4.5.8.8.3 1.3-2 2.4-4.3 3.8-6.3s3-4 4.6-6m1.6 2c.6-.8-.6-1.8-1.2-1.1-1.9 2-2.9 4.7-3 7.3-.1.8 1 .8 1 .1.5-2.5 1.7-4.4 3.2-6.3m43.8-38a303.6 303.6 0 0 0-17.7 27.5c-5 8.6-10.6 17.5-14.4 26.7-10.2-.7-20.4-1.5-30.7-2.1a438 438 0 0 0 29-54.6L423 201"/><path fill="#040606" d="M378 237.9c.6-.7 1.8.3 1.2 1-1.5 2-2.7 4-3.2 6.4 0 .7-1.1.7-1 0 .1-2.7 1.1-5.5 3-7.4m-1.6-1.9c.6-.6 1.7.4 1.2 1-1.6 2-3.2 4-4.6 6-1.4 2-2.5 4.3-3.8 6.3-.3.5-1 .1-.9-.4 1.5-4.6 4.7-9.4 8-12.9"/><path fill="#f9cb17" d="m322 193.6 35.5 2.6a343.6 343.6 0 0 0-31 54.7l-29.3-1.8-3.5-.2c9.7-18.2 19.8-36.5 28.3-55.3"/><path fill="#040606" d="M288.8 204.6c.7-1 2.3 0 1.6 1-1.9 2.9-4 5.6-6 8.2-.5.6-1.4 0-1-.6 1.7-3 3.5-5.8 5.4-8.6m-4.1.5c.7-.6 1.8.3 1.2 1-3 3.6-6.2 6.8-8.7 10.8-.3.6-1.1 0-.8-.5 2.1-4 4.8-8.3 8.3-11.3"/><path fill="#f9cb17" d="M286.3 191a580 580 0 0 0-32.6 55.6l-26.5-1.4c11.3-17.9 21.8-37 31-56l28.1 1.8m-64.9-4.2c-5.5 9-10.4 18.4-15.4 27.7-5.1 9.3-10.6 18.6-15.3 28.2v.4c-10-.5-20-1-29.8-1.3 9.8-19.2 20.1-38 30-57.2l30.5 2.2"/><path fill="#040606" d="M163.8 225.7c.7-.7 1.7.3 1.2 1-2 3.4-5 6.4-7.6 9.3-.4.5-1-.2-.7-.6 2.2-3.2 4.4-6.9 7.1-9.7m-.3-5.5c.9-.5 1.7.8 1 1.4a23.2 23.2 0 0 0-7.5 9c-.4.7-1.5.3-1.2-.4 1.4-4 4-7.9 7.7-10"/><path fill="#f9cb17" d="m147.8 180.7 10.1 1a166.3 166.3 0 0 0-14.3 27.8l.7-9.8c.2-3.2 0-15.7 2.8-17.6.6-.4.8-.9.7-1.4"/><path fill="#040606" d="M349 332.3c.3.7-.8 1.3-1.2.6a19.8 19.8 0 0 1-2.9-8.9c0-.6 1-.7 1-.1.5 3 1.7 5.6 3 8.4m-3.3 1.9c.3 1-1.3 1.5-1.6.4-1-2.8-1.7-5.8-2.3-8.8-.2-.7.8-1 1-.3 1.1 2.9 2.2 5.8 3 8.7"/><path fill="#ed6926" d="m309.4 232.6.2 1c-8 2.7-15.3 3.2-23.3 0l3.2-12.6 2-7.4c1.1-4.4.8-5.4 6-5.8 2.8-1.3 4.8-.6 5.8 2.2l1.3 2.9c.7 1.6 1.1 3.4 1.6 5.2l3.2 14.5m10.7 49.1c-.1-.8-.7-1.4-1.7-1.1a62.1 62.1 0 0 1-22 3.3c-7.4-.3-13.9-2.5-20.9-4.4l3.3-15 2-8v.1c10.5 5.5 23 5.7 34 1.3l.1-.1 1.2 5.4 4 18.5m4.3 19.3 4.9 21.6a108.7 108.7 0 0 1-45 6c-6-.4-14.2-.5-18.7-5 1.8-6.7 3.4-13.5 4.9-20.4 16.8 7.1 36 6.3 52.8-.3 1-.4 1.1-1.3 1-2"/><path fill="#f3f2f1" d="M298.5 242c1 0 1-1.4 0-1.4a42 42 0 0 1-11.1-1.6c-.6-.2-.9.7-.3 1 3.7 1.3 7.5 2 11.4 2m2.9 1.8c1-.3.6-1.8-.5-1.5a23 23 0 0 1-11.8.2.5.5 0 0 0-.3 1 19 19 0 0 0 12.6.3m8.6-8.1 4.4 19.6h-.3a44.8 44.8 0 0 1-32.7-.2h-.3c1.5-6.5 3-12.8 4.7-19.2l.1-.6a28 28 0 0 0 24.1.4m3 53.3c1-.6 0-2.1-1-1.5a23 23 0 0 1-10.9 2.8c-.6 0-.8 1.1-.1 1.2 4 .6 8.6-.2 12-2.4m.2 3.7c1-.3.6-2-.5-1.6l-2.2.6a48.8 48.8 0 0 0-4.5 1.9c-.5.2-.1 1 .4 1 2.3-.5 4.6-1.2 6.8-1.9m11.2 8.1h-.2c-.2-.6-.8-1-1.6-.7a78.1 78.1 0 0 1-51.7 1.2l4.2-20.2c12.7 7.6 30.6 6.7 44 2.1.9-.2 1.1-1 1-1.6l4.3 19.2"/><path fill="#ed6926" d="M356.1 345.8c0 .7 0 1.5.2 2.2-19.7.6-39.4 1.3-59 1.3-19.7 0-39.2-.9-58.8-1v-.2c-.2-1.3-.1-2.6-.2-4v.1c0 .4.3.7.8.8 19 2.7 38.6 2.6 57.7 2.7a808 808 0 0 0 59.3-2m-86.1-7.1c.9-.1.7-1.6-.2-1.5-3.5 0-6.6-.6-9.4-2.8-.6-.5-1.5.3-.9.9a13 13 0 0 0 10.5 3.4m3.3-3.2c1 0 1.3-1.7.2-1.8a21.3 21.3 0 0 1-14-7.3c-.4-.5-1.3.2-1 .8 3.2 4.7 9 8.3 14.8 8.3m70.7-.8c.3 1 1.9.6 1.6-.4-.7-3-1.8-5.8-2.8-8.7-.3-.6-1.3-.4-1.1.3.6 3 1.3 6 2.3 8.8m3.8-1.7c.4.7 1.5.1 1.1-.6a27.9 27.9 0 0 1-3-8.4c0-.6-1-.5-1 .1.3 3 1.1 6.3 2.9 9m2.9-4.8c1.7 4.7 2.9 9.7 4.6 14.5a949 949 0 0 1-57.2 1.8c-19 0-38.1-1.5-57.2-1.5a229 229 0 0 0 9.5-26.7v-.2c2 .5 4.2.4 6.2.5h7.7l-1.1 7c-.2 1 .8 1.7 1.6 1.5 4.3 7.6 20.1 6.9 27.5 7 13 0 25.8-2.2 38-6.7h.1c1.1.5 2.8-.4 2.5-2l-2.4-10.7c5 .8 10 1 14.9 1.3 1.5 4.8 3.6 9.4 5.3 14.2"/><path fill="#040606" d="M357.9 342.9c.7.6.6 2-.2 2.5l-.2 2.8-1.2-.2-.2-2.2a808 808 0 0 1-59.3 1.9c-19.1 0-38.8 0-57.7-2.7a.8.8 0 0 1-.8-.8l-1.4-.2c0-.6.6-.8 1-.6v-.6a241 241 0 0 1 11.3-27.5c0-.3.1-.5.4-.6l.4-.1.4 1.5v.2c-2.6 9-5.8 18-9.5 26.7 19 0 38.1 1.5 57.2 1.5a949 949 0 0 0 57.2-1.8c-1.7-4.8-2.9-9.8-4.6-14.5-1.7-4.8-3.8-9.4-5.3-14.2l1.6-1a85 85 0 0 1 10.9 29.9"/><path fill="#040606" d="M357.5 348.2c.7.5.5 1.9-.6 2-39.4 2.2-80 3-119.4-.5a.7.7 0 0 1-.6-.6 1 1 0 0 1-.3-1c.3-1.3.2-2.7.3-4h1.4c0 1.4 0 2.7.2 4v.2c19.6.1 39.1 1 58.7 1 19.7 0 39.4-.7 59-1.3l1.3.2m-47.9-114.6-.2-1c-1.1-4.9-2-9.7-3.2-14.5-.5-1.8-.9-3.6-1.6-5.2l-1.3-2.9c-1-2.8-3-3.5-5.9-2.2-5.1.4-4.8 1.4-6 5.8l-1.9 7.4-3.2 12.7c8 3 15.2 2.6 23.3 0m4.8 21.6-4.4-19.6a28 28 0 0 1-24-.4l-.2.6L281 255h.3a45 45 0 0 0 32.7.4h.3m14.9 67.2-5-21.7-4.2-19.2-4-18.5-1.2-5.4h-.1a40.5 40.5 0 0 1-34-1.2l-2 7.8-3.3 15.1-.4 1.7-4.2 20.2a78.1 78.1 0 0 0 51.7-1.2c.8-.3 1.4.1 1.6.8.2.6 0 1.5-.9 1.9a70.7 70.7 0 0 1-52.8.3c-1.5 6.9-3 13.7-4.9 20.4 4.5 4.5 12.7 4.6 18.6 5a108.7 108.7 0 0 0 45-6m17.6-10 .2.4-1.6 1c-5-.4-10-.5-14.9-1.3l2.4 10.7c.3 1.6-1.4 2.5-2.5 2h-.1c-12.2 4.5-25 6.8-38 6.7-7.4-.1-23.2.6-27.5-7-.8.2-1.8-.4-1.6-1.4l1-7-7.6-.1c-2 0-4.2 0-6.2-.5l-.4-1.5c2.1-.6 4.4-.6 6.6-.6 2.6 0 5.3-.2 8 0h.1c3.6-21 9.1-42 14.1-62.8a1954 1954 0 0 1 8.7-34.7c1.3-5 2.8-14.5 10-14.2 6.5.2 9.7 7.9 11.2 13.2 3.1 11.2 5.2 22.7 7.7 34l13.7 61.3c5.1-.2 10.4.3 15.5.6.7 0 1.1.6 1.2 1.3"/><path fill="#040606" d="M320.1 281.7c.1.6-.1 1.4-1 1.6-13.4 4.6-31.3 5.5-44-2l.4-1.8c7 1.9 13.5 4.1 20.9 4.4 7.6.3 14.9-1 22-3.3 1-.3 1.6.3 1.7 1m-7.4 9.6c1.1-.3 1.6 1.3.5 1.6-2.2.7-4.5 1.4-6.8 1.8-.5.1-1-.7-.4-.9a48.8 48.8 0 0 1 4.5-1.9l2.2-.6m-.7-3.7c1-.6 2 .9 1 1.6a18 18 0 0 1-12 2.4c-.7-.1-.5-1.2.1-1.2 4.1 0 7.3-1 10.9-2.8m-11-45.2c1-.3 1.4 1.2.4 1.5-4 1.4-8.6 1.2-12.6-.3a.5.5 0 0 1 .3-1c4.1 1 7.8.9 11.8-.2m-2.4-1.7c1 0 1 1.5 0 1.5a32 32 0 0 1-11.4-2.2c-.6-.2-.3-1 .3-1a42 42 0 0 0 11.1 1.7m-25 93c1 .1.8 1.8-.2 1.8-5.8 0-11.6-3.6-14.7-8.3-.4-.6.5-1.3 1-.8a21 21 0 0 0 14 7.3m-3.8 3.4c.9 0 1.1 1.5.2 1.6a13 13 0 0 1-10.5-3.4c-.6-.6.3-1.4 1-1a13 13 0 0 0 9.3 2.9m52.6-81.2c.6-.7 1.6.1 1 .8a19.8 19.8 0 0 1-7.3 5.8c-.6.2-1-.7-.5-1 2.7-1.5 4.7-3.4 6.8-5.6m3 2.4c.9-.6 1.8.7 1 1.4a96 96 0 0 1-7.5 5.2c-.6.4-1.2-.5-.7-1 2.3-1.9 4.7-3.9 7.2-5.6"/><path fill="#ed6926" d="m242.5 327.4 1-.6a32.6 32.6 0 0 1 8 21.8l-13 1.4-7.7.7c-4.4.4-5.3 1.1-7.4-3.6-2.3-2.3-2.3-4.4 0-6.3l2.2-2.2c1.4-1.2 2.9-2.2 4.4-3.2 4-2.8 8.3-5.4 12.5-8m42.4-27.1c-.7.4-1 1.2-.5 2a62.1 62.1 0 0 1 10.7 19.5c2.3 7 2.5 14 3.1 21.2l-15.3 2-8 1v-.1a40.5 40.5 0 0 0-10.5-32.3l-.2-.1 4.7-3 16-10.2m16.6-10.6 18.6-12a108.7 108.7 0 0 1 21.3 40.1c1.5 5.8 4.3 13.5 1.6 19.2-7 .7-13.8 1.5-20.8 2.5.9-18.2-6.6-36-18.6-49.5-.6-.7-1.5-.6-2-.2l-.1-.1"/><path fill="#f3f2f1" d="M255.1 334.3c-.3-1-1.7-.4-1.4.5a46 46 0 0 1 2.4 11c0 .6 1 .5 1 0 0-4-.7-7.9-2-11.5m.7-3.3c-.6-.9-2 0-1.3 1a23 23 0 0 1 4.3 11c.1.6 1 .5 1-.1 0-4.2-1.4-8.6-4-12m-10.6-5.3 17-10.8v.2a44.8 44.8 0 0 1 11.1 31.2 1956.7 1956.7 0 0 1-20.2 2.2 28 28 0 0 0-8-22.8m49.2-21c-1-.8-2 .6-1.2 1.4 3 2.7 5 5.3 6.4 9.2.3.6 1.3.4 1.2-.3-.8-4-3.2-8-6.4-10.3m3.5-1.6c-.7-1-2.1.1-1.5 1l1.4 1.9.4.2c1 1.1 1.9 2.3 3 3.3.3.4 1-.2.6-.7-1.1-2-2.6-3.8-4-5.7m3.8-13.3v.1c-.5.5-.7 1.2-.1 1.8a78.1 78.1 0 0 1 19 48.1l-20.4 3c2.7-14.5-4.3-31-13.3-42-.5-.7-1.2-.7-1.8-.4l16.6-10.6"/><path fill="#ed6926" d="m332.6 244.5 2-1c7.5 18.3 14.9 36.5 21.7 55 6.7 18.4 12.6 37 19.3 55.4l-.3.1c-1 .7-2.4 1-3.6 1.6.4-.2.6-.5.5-1-4-18.7-10.8-37.2-17.3-55.1-6.8-18.6-14.2-37-22.3-55m23 83.2c-.4-.7-1.7 0-1.4.8 1.3 3.3 1.8 6.3.6 9.8-.2.7.9 1.3 1.2.5 1.4-3.5 1.5-7.7-.4-11m-4.2-2c-.3-1-2-.7-1.8.4 1.2 5.6.9 10.4-2 15.6-.3.6.7 1.3 1.1.7a18.5 18.5 0 0 0 2.7-16.7m-25-66.1c.8-.7-.1-2-1-1.4-2.5 1.7-4.9 3.7-7.2 5.6-.5.5 0 1.4.7 1a96 96 0 0 0 7.5-5.2m-3-3c.6-.7-.4-1.5-1-.8a27.9 27.9 0 0 1-6.8 5.6c-.5.3 0 1.2.5 1a22 22 0 0 0 7.4-5.8m-5.5-1.1c3.9-3.2 8.1-6 12-9.3a948.8 948.8 0 0 1 21.4 53c6.6 18 11.8 36.3 18.4 54.2-9.4-.5-19-.3-28.4.3h-.2c-.2-2-1-4-1.7-5.9-.8-2.4-1.6-4.8-2.6-7.2l7-1.4c1-.2 1.3-1.4.8-2 5.6-6.7-.5-21.3-3-28.3a107.6 107.6 0 0 0-19.2-33.3h-.1c.1-1.3-1.3-2.6-2.7-1.8l-9.3 6c-1-5-2.5-9.7-4-14.4 4-3 7.7-6.7 11.6-9.9"/><path fill="#040606" d="M329.3 243.8c.3-1 1.6-1.3 2.5-.7l2.6-.8.3 1.2-2 1a877 877 0 0 1 22.2 55c6.5 18 13.3 36.4 17.3 55.1.1.5 0 .8-.4 1l.3 1.4c-.6.1-1-.3-1-.7l-.5.2a241 241 0 0 1-29.7-1.1c-.2 0-.5 0-.7-.3l-.3-.3 1.3-1h.2c9.4-.6 19-.8 28.4-.3-6.6-17.9-11.8-36.3-18.4-54.2a931.2 931.2 0 0 0-21.4-53c-3.9 3.2-8.1 6-12 9.3-4 3.2-7.5 6.8-11.5 9.9l-1.5-1.2a85 85 0 0 1 24.3-20.5"/><path fill="#040606" d="M334.4 242.3c.3-.8 1.6-1 2 0 15.8 36.1 30.5 74 40.8 112.1 0 .4-.1.7-.4.8 0 .3-.3.6-.8.6-1.3.2-2.6.8-3.9 1.2l-.4-1.4c1.2-.5 2.5-1 3.6-1.6h.3c-6.7-18.5-12.6-37.1-19.3-55.5-6.8-18.5-14.2-36.7-21.6-55l-.3-1.2m-91 84.5-1 .6c-4 2.6-8.3 5.2-12.4 8-1.5 1-3 2-4.4 3.2l-2.2 2.2c-2.3 2-2.3 4 0 6.3 2.1 4.7 3 4 7.4 3.6l7.7-.7 13-1.4a33 33 0 0 0-8-21.8m18.6-12-17 10.8a28 28 0 0 1 8 22.8h.6l19.6-2.2v-.4c0-11.7-3.3-21.8-11-30.8l-.2-.2m58-37.1-18.6 12-16.6 10.6-16 10.2-4.7 3h.2c8 8.8 12 20.6 10.5 32.4a837.5 837.5 0 0 0 23.4-3l1.7-.2 20.4-3c-1.2-18-7-34.4-19-48-.6-.7-.4-1.4.2-1.9.5-.4 1.4-.5 2 .2a70.7 70.7 0 0 1 18.6 49.5c7-1 13.9-1.8 20.8-2.5 2.7-5.7 0-13.4-1.6-19.2a108.7 108.7 0 0 0-21.2-40.2m-15.4-13 .2-.3 1.5 1.2c1.4 4.7 3 9.5 4 14.3l9.2-5.9c1.4-.8 2.8.5 2.7 1.7v.1c8.4 9.9 15 21.1 19.4 33.3 2.4 7 8.5 21.6 2.9 28.3.5.6.2 1.8-.8 2l-7 1.4c1 2.4 1.8 4.8 2.6 7.2.7 2 1.5 4 1.7 6l-1.3 1c-1.3-1.9-2-4-2.8-6-1-2.6-2-5-2.8-7.5v-.2c-21 3.9-42.6 6-63.8 8.4-11.8 1.4-23.7 2.7-35.6 3.8-5.2.5-14.5 2.4-16.8-4.4-2-6.2 4.1-11.9 8.6-15.1 9.4-6.8 19.5-12.7 29.3-19l52.8-34c-2-4.7-3.3-9.8-4.8-14.7-.2-.7.2-1.3.8-1.6"/><path fill="#040606" d="M284.9 300.3c.6-.3 1.3-.3 1.8.4 9 11 16 27.5 13.3 42l-1.8.3c-.6-7.3-.8-14.1-3-21.2-2.4-7.1-6-13.6-10.8-19.5-.6-.8-.2-1.6.5-2m11.4 3.7c-.6-.9.8-2 1.5-1 1.3 1.9 2.8 3.7 4 5.7.2.5-.4 1.1-.8.7a48.4 48.4 0 0 1-3.3-3.5l-1.4-1.9m-3.2 2c-.9-.8.2-2.2 1.2-1.4 3.2 2.3 5.6 6.4 6.4 10.3.1.7-1 .9-1.2.3a23 23 0 0 0-6.4-9.2m-38.6 26c-.6-1 .7-1.9 1.3-1 2.6 3.3 4 7.7 4 11.9 0 .6-.9.7-1 0a23 23 0 0 0-4.3-11m-.8 2.9c-.3-1 1.1-1.5 1.4-.5 1.3 3.6 2 7.5 2 11.4 0 .6-1 .7-1 .1-.3-3.8-1.1-7.4-2.4-11m95.9-8.6c-.2-1 1.5-1.3 1.8-.4 2 5.4.7 12-2.7 16.7-.4.6-1.4 0-1-.7 2.8-5.2 3-10 2-15.6m4.5 2.3c-.3-.8 1-1.5 1.4-.8 2 3.4 1.8 7.6.4 11-.3.9-1.4.3-1.2-.4 1.2-3.5.7-6.5-.6-9.8"/><path fill="#fcee9b" d="M163.1 28.5c-.3-.1.1-.3.3-.3h.1c.3.1-.2.3-.4.3m4.4-1.3c-.3-.2.1-.4.3-.4h.1c.2.2-.2.4-.4.4m10.2-.4h-1v-.7h1v.7m260.4-.4-.2-.2.4-.1c0 .2-.1.3-.2.3"/><path fill="#313234" d="M437.9 26.2c0-.2 0-.3.2-.3l.2.2-.4.1"/><path fill="#737677" d="M447.7 23.8h-.1c-.1 0 0-.2 0-.2l.1.2"/><path fill="#313234" d="m447.7 23.8-.1-.2.4-.2c.3.2 0 .4-.3.4m-5-.4h-1v-.6h1v.6"/><path fill="#737677" d="M447.1 22.8v-.1"/><path fill="#313234" d="M447.2 22.8h-.1v-.1c0-.2.2-.3.4-.3.3.2-.1.4-.3.4"/><path fill="#f3f2f1" d="m155.5 22 .8-.9-.8 1"/><path fill="#737677" d="M154.7 22.1c-.3 0-.7 0-.9-.4-.2-.5.2-.7.8-.7h.8l.8.1-.7 1h-.8"/><path fill="#313234" d="m155.5 22 .8-.9h.4c0 .3-.6.7-1.2 1m4.5-1.5-.4-.1a1 1 0 0 0-.4-.1c0-.2.2-.3.4-.3.3 0 .5.1.5.3l-.2.2m248.3-1.2c-.3-.2.1-.4.3-.4h.1c.2.2-.2.4-.4.4"/><path fill="#f3f2f1" d="M403.2 19.4c-.6 0-1-.2-1-.7h1.5v.7h-.5"/><path fill="#313234" d="M155.3 17c0-.3.6-.3 1-.3 0 .3-.7.2-1 .3"/><path fill="#f3f2f1" d="M151 15.7c-.7 0-.6-.6-.6-1h1.5c-.3.2-.6.5-.5 1h-.3m40.9-.5-.2-.1a1 1 0 0 0-.5-.1c0-.2.3-.3.5-.3s.5 0 .5.3l-.2.2m-5.7 0a24 24 0 0 0-.8-.6h.8v.6"/><path fill="#313234" d="M186.4 15.3h-1v-.7h.2l.8.6v.1"/><path fill="#f3f2f1" d="M153.6 15.3c-1 0-1.3-.3-1.3-1h1.5v.9l-.2.1"/><path fill="#313234" d="m153.6 15.3.2-.1v.1h-.2"/><path fill="#f3f2f1" d="M152.3 14c-.4-.1-.4-.4-1-.4.2-.3.6-.3.6-.7.3.1.4.4 1 .4-.2.2-.6.3-.6.6M151 8.6c-.5 0-.7-.3-.7-.6s.2-.6.6-.6l.5.1v1l-.5.1m290.4-.4c-.3-.2.1-.4.4-.4.3.2-.1.4-.4.4m-24.8 0c-.3-.2.1-.4.3-.4.3.2 0 .4-.3.4m-253.4-.7c-.3-.1.1-.3.4-.3.3.1-.1.3-.4.3m-13.6-1c-.3-.2.1-.4.3-.4h.1c.2.2-.2.4-.4.4"/><path fill="#f9d845" d="M208.3 129c-.6 0-1-.2-1-.7h1.5v.7h-.5"/><path fill="#5f6264" d="M167 128.7c-.3-.2.1-.4.3-.4h.1c.2.1-.2.4-.4.4"/><path fill="#f9d845" d="M345.8 128.3c-.3-.2.1-.4.3-.4h.1c.2.2-.2.4-.4.4"/><path fill="#5f6264" d="M171.4 127.3c-.3-.2.1-.4.3-.4h.1c.2.2-.2.4-.4.4m10.1-.3h-1v-.7h1v.6m260.5-.4c-.2 0-.3-.1-.3-.2 0-.2.1-.3.2-.3.2 0 .3.2.3.3l-.2.2"/><path fill="#f9d845" d="m276.8 126.5-.3-.2c0-.2.2-.3.3-.3l.2.3-.2.2"/><path fill="#5f6264" d="M366.2 126.3c-.4-.1-.5-.4-1-.4.1-.2.5-.3.5-.7.4.1.5.4 1 .4-.1.3-.5.3-.5.7"/><path fill="#313234" d="M322.2 126.4c-.7 0-1.3-1-.3-1.2.3 0 1 .5 1 .7-.2.4-.5.5-.7.5"/><path fill="#f9d845" d="M451.5 124v-.1c-.3-.2.2-.4.4-.4.3.2-.1.4-.4.4"/><path fill="#313234" d="M446 123.6h-.4v-.7h.7l-.2.7"/><path fill="#f9d845" d="M446.6 123.6h-.5l.2-.7h.3v.7m-98-.1c-.2 0-.4-.1-.4-.3l.7-.2s.2 0 .2.2-.2.3-.5.3m102.4-.6c-.2-.2.2-.4.4-.4.3.2-.1.4-.3.4m-59.1-.4c-.4 0-.6-.3-.6-.7 0-.3.2-.7.7-.7h.4c.2.8-.3 1-.5 1.4"/><path fill="#5f6264" d="M361 122.2h-.2c-.2-.2.2-.4.4-.4h.1c.2.2-.2.4-.4.4m-202.3.1h-.4l.5-1.2h.6l.8.1h.5c0 .4-1.1 1-2 1"/><path fill="#313234" d="M158.2 122.2a1 1 0 0 1-.5-.3c-.3-.6.2-.8.8-.8h.2l-.5 1.1"/><path fill="#5f6264" d="M163.8 120.7h-.3a1 1 0 0 0-.4-.2c0-.2.2-.3.4-.3.3 0 .5.1.5.3 0 .2-.1.2-.2.2"/><path fill="#f9d845" d="M412 119.5c-.2-.2.2-.4.4-.4.3.2-.1.4-.3.4m-5 0c-.7 0-1-.2-1-.7h1.5v.7h-.5m-57.9-.7c-.3-.1.1-.3.3-.3h.1c.2.1-.2.3-.4.3m3.4-.3c-.9 0-.4-.9-.5-1.4.8.1 1 .6 1 1.4h-.5m-91.6 0c-1.6-.4-2.7-1.1-2.5-2.7 1.4.4 3.9 1.3 2.5 2.7m84.8-1c-.3-.2.1-.4.3-.4h.1c.2.2-.2.4-.4.4"/><path fill="#313234" d="M159.1 117.1c0-.3.6-.2 1-.3 0 .3-.6.2-1 .3"/><path fill="#5f6264" d="M367.8 115.8c-.2 0-.4-.1-.6-.4v-.7h.4c.7 0 .9.3.8.5 0 .3-.3.6-.6.6m-74.6 0c-.3-.2.1-.4.3-.4h.1c.2.2-.2.4-.4.4"/><path fill="#f9d845" d="M155 115.8c-.8 0-.7-.6-.7-1h1.4c-.2.2-.5.5-.5 1a2 2 0 0 1-.3 0m194.3-.4c-.3-.1.1-.3.3-.3h.1c.2.1-.2.3-.4.3m-153.2-.1-.3-.1a1 1 0 0 0-.5-.1c0-.2.3-.3.5-.3s.5.1.5.3l-.3.2"/><path fill="#313234" d="M190.3 115.4h-1v-.7h1v.7"/><path fill="#f9d845" d="M157.4 115.4c-.9 0-1.3-.3-1.2-1h1.5v1h-.3"/><path fill="#5f6264" d="M375 114c-.3 0 .2-.3.4-.3.3.2-.1.4-.3.4"/><path fill="#f9d845" d="M156.2 114c-.4 0-.5-.3-1-.3.1-.2.5-.3.5-.7.4.1.5.4 1 .4-.1.3-.5.3-.5.7"/><path fill="#5f6264" d="m358.2 113.6.2-.3c0 .2-.1.3-.2.3"/><path fill="#313234" d="M358.2 113.6c-.2 0-.3-.1-.3-.2 0-.2.1-.2.2-.2h.3l-.2.4"/><path fill="#f9d845" d="M205.3 113.4c-.3 0-.5-.3-.5-.6s.3-.5.7-.5h.4v.7h-.1c-.3 0-.4.2-.4.4"/><path fill="#5f6264" d="M366.5 112.6c-.2 0-.3-.1-.3-.2 0-.2.1-.2.2-.2s.3 0 .3.2l-.2.2"/><path fill="#f9d845" d="M275.7 112.4h-.1c-.2-.2.2-.4.4-.4.3.2-.1.4-.3.4"/><path fill="#5f6264" d="M321.9 111c0-.3.6-.2 1-.3 0 .3-.7.2-1 .3"/><path fill="#f9d845" d="M334.5 110.4c-.6 0-1-.2-1-.7h1.5v.6h-.5"/><path fill="#313234" d="M259 110.3c0-.2.4-.2.8-.3l-.1.3h-.7"/><path fill="#f9d845" d="M259.7 110.3v-.3h.3l-.3.3"/><path fill="#5f6264" d="M369.9 109.2c-.2 0-.3-.1-.3-.2 0-.2.1-.2.2-.2.2 0 .3 0 .3.2l-.2.2"/><path fill="#f9d845" d="M286.4 108.7h-.1c-.2-.2.2-.4.4-.4.3.2-.1.4-.3.4m-131.6 0c-.4 0-.6-.3-.6-.6s.2-.6.6-.6l.4.1v1l-.4.1"/><path fill="#5f6264" d="M445.2 108.3c-.3-.1.1-.4.3-.4h.1c.2.2-.2.4-.4.4"/><path fill="#313234" d="M420.4 108.3h-.1c-.2-.1.2-.4.4-.4.3.2-.1.4-.3.4"/><path fill="#f3f2f1" d="M139.2 108h-.5c-.2-.5.2-.6.5-.7v.7"/><path fill="#313234" d="M140.1 108h-.9v-.7c.2 0 .4-.1.4-.4.6.1.5.7.5 1"/><path fill="#5f6264" d="M167 107.6c-.3-.1.1-.3.3-.3h.1c.2.1-.2.3-.4.3"/><path fill="#f9d845" d="M284.8 107.3c-1 0-1.6-.3-1.4-1l.9-.2.8-.2h.2v1.4a7 7 0 0 1-.5 0"/><path fill="#5f6264" d="M375.7 106.6c-.6 0-.7-.3-.7-.7h.1c.3 0 .3-.1.4-.3.5 0 .4.6.4 1a2 2 0 0 1-.2 0"/><path fill="#f9d845" d="M153.4 106.6h-.1c-.2-.1.2-.3.4-.3.3.1-.1.3-.3.3m116.1-.4-.3-.3.3-.2.2.2c0 .2-.1.3-.2.3"/><path fill="#f3f2f1" d="M138.3 106h-.1c-.2-.2.2-.4.4-.4.3.1-.1.4-.3.4"/><path fill="#5f6264" d="M240 105.6c0-.3.6-.3 1-.3 0 .3-.6.2-1 .3m56.6-.3c-.3-.2.1-.4.3-.4h.1c.2.2-.2.4-.4.4"/><path fill="#f9d845" d="M219.6 105.3c-.3-.2.1-.4.3-.4h.1c.2.2-.2.4-.4.4m-67.6-.7h-.2c-.2-.2.2-.4.4-.4h.1c.2.2-.2.4-.4.4"/><path fill="#5f6264" d="M377.9 104.2h-1v-.6h1v.6m-81.2-.6c-.3 0-.6 0-.7-.2l.4-1.1c.6.1.7.6.6 1.3h-.3"/><path fill="#313234" d="M296 103.4c-.6-.3-.5-.8 0-1.2h.4l-.4 1.2"/><path fill="#f9d845" d="M215.2 103.6c-.3-.2.2-.4.4-.4.3.2-.2.4-.4.4"/><path fill="#5f6264" d="M167.5 103.2c-.3-.1.1-.3.3-.3h.1c.2.1-.2.3-.4.3m160.1-.3c-1.5 0-1.6-1.5-.9-2 .4.1.8.3 1.4.3.3.8 0 1.3-.4 1.7h-.1m-156.7.1c-.4 0-.7-.3-.7-.6s.3-.6.7-.6h.4v1l-.4.2m268.5-.4h-.1c-.2-.2.2-.4.4-.4.3.2-.1.4-.3.4"/><path fill="#313234" d="M165.2 102.6h-.5l.5-1h.3v1h-.3"/><path fill="#f9d845" d="M164.7 102.5c-.5-.1-.8-.4-.7-1h1.2l-.5 1"/><path fill="#313234" d="M139.7 101.9c.1-.4.5-.7 1.3-.7h.1c-.2.4-.6.7-1.4.7m26.7-.4c-.4 0-.4-.3-1-.3.2-.3.6-.3.6-.7.3 0 .4.3 1 .3-.2.3-.6.4-.6.7"/><path fill="#f9d845" d="M411.9 101.2h-.4V100h.4c.7 0 1 .3 1 .6 0 .4-.3.7-1 .7"/><path fill="#5f6264" d="M368.6 101.2c-.6-.6-1.6-.9-1.4-2h2c.3 1-.6 1.2-.6 2m-185-.7h-.1c-.2-.1.2-.3.4-.3.3.1-.1.3-.3.3"/><path fill="#f9d845" d="M337.5 99.2c-.3-.2.1-.4.4-.4.2.2-.2.4-.4.4"/><path fill="#5f6264" d="M185.3 98.9c-.8 0-1-.4-.8-1.1.4.4 1.8.1 1.4 1a4 4 0 0 1-.6 0m-7.9-.4-.2-.3c0-.1 0-.2.2-.2l.2.2c0 .2 0 .3-.2.3M373.3 97c-.2 0-.3-.1-.3-.2 0-.2.1-.2.2-.2.2 0 .3 0 .3.2l-.2.2m-61.2.1h-1v-.7h1v.7"/><path fill="#313234" d="M151 96.8h-.6c-.2-.7.7-1.3 1.5-1.3.5 0 1 .3.9 1h-.3l-.8.1-.8.2"/><path fill="#f9d845" d="M347.8 96.5h-.1c-.2-.2.2-.4.4-.4.3.2-.1.4-.3.4"/><path fill="#5f6264" d="M307.7 96.4c-1.2 0-1.1-1.2-.5-1.7 1.3 0 1.2 1.3.5 1.7"/><path fill="#313234" d="M216.2 95c-.3-.5 0-.6.6-.6h1.3c0 .3-.3.5-.6.6h-1.3"/><path fill="#f9d845" d="M216.7 95.1h-.5 1.3-.8"/><path fill="#313234" d="M150 95.1h-.1c-.2-.2.2-.4.4-.4.3.2-.1.4-.3.4"/><path fill="#5f6264" d="M434.5 94.8c-.3-.2.1-.4.3-.4.3.2-.1.4-.3.4"/><path fill="#313234" d="M393.3 94.6c-.2 0-.4-.3-.3-.5 0-.2 0-.3.2-.3l.3.6c0 .2-.1.2-.2.2"/><path fill="#f9d845" d="M294.6 94c0-.3.6-.2 1-.3 0 .4-.6.3-1 .4"/><path fill="#5f6264" d="m448.3 93.3-.3-.2c0-.2.2-.3.3-.3.1 0 .2.1.2.3l-.2.2m-145.3.1h-.1c-.3-.2.1-.4.4-.4.3.2-.1.4-.4.4"/><path fill="#737677" d="M164.2 93.4c-.6 0-.6-.3-.7-.7h.2c.2 0 .3-.1.3-.3.6 0 .4.6.5 1h-.3m-5.6 0c0-.3.6-.3 1-.3 0 .3-.6.2-1 .3m-1.4-.4c-.7 0-.8-.5-1.5-.6.1-.5.6-.7 1.4-.7h.6c.2.7-.4.9-.5 1.4"/><path fill="#313234" d="M262.5 92c-.3-.1.1-.3.3-.3h.1c.2.1-.2.4-.4.4"/><path fill="#f9d845" d="M398 91.4h-.1c-.3-.2.2-.4.4-.4.3.2-.1.4-.4.4"/><path fill="#313234" d="M184.2 91.4c-1.3 0-1.4-1-.7-1.4.8 0 1.1.6 1 1.4h-.3"/><path fill="#f3f2f1" d="M459.8 91c-.3-.1.1-.3.3-.3h.1c.2.1-.2.3-.4.3"/><path fill="#5f6264" d="M330 90.6c-.2 0-.4-.4-.3-.6l.1-.2c.2 0 .4.3.3.5l-.1.3"/><path fill="#f3f2f1" d="M143.1 90c-.3-.1.1-.4.4-.4.2.2-.2.4-.4.4"/><path fill="#f9d845" d="M417.6 88.9c-.1 0-.2-.1-.2-.3 0-.1 0-.2.2-.2l.2.2c0 .2-.1.3-.2.3"/><path fill="#f3f2f1" d="M207.7 89c-1 0-2.3-1-1.8-2h.3c.6 0 .6.3.7.6 0 .7 1.6.2 2 .7-.3.4-.7.6-1.2.6m3.1-.6h-1v-.7h1v.7"/><path fill="#5f6264" d="M433 87.6c-1.5-.3-.6-.5-.5-1.3.7.3 1 .9.4 1.3"/><path fill="#313234" d="M296 87.3c0-.3.6-.3 1-.3 0 .3-.6.2-1 .3"/><path fill="#f9d845" d="M420.8 86.6c-.6-.1-1-.4-1-1h.2c.6 0 .7.3 1.2.3 0 .3-.4.4-.4.7"/><path fill="#313234" d="m329.6 86.1.3-.2.5-.3-.3.3-.5.2"/><path fill="#737677" d="M173.2 86.4c-.5 0-.4-.4-.4-.8 0-.3 0-.7-.4-.7h-.1c0-.3.6-.3 1-.3h.9c.2.8 0 1.3-.5 1.7a2 2 0 0 1-.5 0"/><path fill="#f3f2f1" d="M254.7 86c-1.4 0-1.3-1.6-.6-2.1.7.5 1.8 1.5 1 2h-.4"/><path fill="#737677" d="m175 85.5-.3-.2c0-.2.2-.3.2-.3.2 0 .3.2.3.3l-.2.2"/><path fill="#f3f2f1" d="M209.9 85.3h-.1c-.2-.2.2-.4.4-.4.3.2-.1.4-.3.4m-20.9-.7h-.2c-.2-.2.2-.4.5-.4.3.2-.2.4-.4.4"/><path fill="#313234" d="M376 84.2c0-.4.8-.2 1.4-.3 0 .4-.9.3-1.5.3"/><path fill="#737677" d="M182.5 83.9c0-.2.3-.3.6-.3v.2l-.6.1"/><path fill="#313234" d="M183.1 83.8v-.2h.4l-.4.2m184.6-.6c-.3-.1.1-.3.4-.3.3.1-.1.3-.4.3"/><path fill="#737677" d="M167 82.9c-1 0-1.2-.6-1-1.4.8.1 1 .6 1 1.4"/><path fill="#f3f2f1" d="M139.7 82.6c-.3-.2.1-.4.3-.4h.1c.2.2-.2.4-.4.4m193.9-2.4h-1v-.7h1v.7"/><path fill="#737677" d="M181.5 80.1c-.2 0-.4 0-.4-.3l.6-.2c.2 0 .3 0 .3.2s-.2.3-.5.3"/><path fill="#f3f2f1" d="M458 79.9c-.8 0-1.1-.4-1.1-.7 0-.4.3-.7 1-.7h.4v1.3h-.4"/><path fill="#737677" d="M171 79.7s-.2 0-.2-.2.2-.2.2-.2c.2 0 .3 0 .3.2s-.1.2-.2.2"/><path fill="#f3f2f1" d="m270 79.4-.3-.2c0-.2.2-.3.3-.3l.2.3-.2.2"/><path fill="#737677" d="M167.2 79.5c-.6 0-.7-.3-1.2-.3.2-.3.5-.6.4-1 .9 0 1.2.5 1 1.3h-.2m-9-.3c-.3-.2.1-.4.4-.4.3.2-.2.4-.4.4"/><path fill="#f3f2f1" d="M293.6 78.5c-1-.2-1-.5-.5-1h1c.1.5-.5.5-.5 1"/><path fill="#737677" d="M169.6 78.4c-.1 0-.2-.1-.2-.3 0-.1 0-.2.2-.2l.2.2c0 .2 0 .3-.2.3m-11.2 0c-.1 0-.2-.1-.2-.3 0-.1 0-.2.2-.2l.2.2c0 .2 0 .3-.2.3m20.1-1.2h-.4v-1.4h.4c.7 0 1 .3 1 .6 0 .4-.3.8-1 .8"/><path fill="#313234" d="M186 76.4c-1.5 0-.8-.9-.3-.9.2 0 .4.3.2 1"/><path fill="#f3f2f1" d="M453.6 73c-.5 0-.6-.2-.4-.5.2-.3.6-.5 1-.5h.2l-.5.7v.4h-.3"/><path fill="#737677" d="M164.8 72c-.2 0-.3-.2-.3-.3 0-.2.1-.2.2-.2s.3 0 .3.2-.2.2-.2.2m9.9-.9c-1.3-.3-2.1-1-2.4-2h.5c.5 0 .9 0 1-.3.7.5 2.1 1.5 1 2.3"/><path fill="#313234" d="M146.5 65.3c0-.4.6-.3 1-.4 0 .4-.7.3-1 .4"/><path fill="#f3f2f1" d="M451 64.6c0-.3.6-.3 1-.4 0 .4-.7.3-1 .4m-297.2-.1h1.2-1.2"/><path fill="#737677" d="M153.8 64.5c.1-.3.9-.2 1.4-.3 0 .2 0 .2-.2.3h-1.2"/><path fill="#313234" d="m153.8 64.6 1.2-.1h-1.2"/><path fill="#737677" d="M148 64.6c-.3-.2.1-.4.3-.4h.1c.2.2-.2.4-.4.4"/><path fill="#f3f2f1" d="M460.2 63.6c0-.4.6-.3 1-.4 0 .4-.6.3-1 .4"/><path fill="#737677" d="M425.6 62.2c.2-.2.3-.4.6-.5h1c0 .5-.9.5-1.6.5"/><path fill="#313234" d="M427.1 61.7h-.9l.8-.2h.1v.2"/><path fill="#f3f2f1" d="M404.8 58.5h-.1c-.2-.2.2-.4.4-.4.3.2-.1.4-.3.4m-250.5-5.1c-.3-.1.2-.4.4-.4.3.2-.1.4-.4.4"/><path fill="#313234" d="M174.8 50.4c-.3-.2.1-.4.3-.4h.1c.2.2-.2.4-.4.4"/><path fill="#f3f2f1" d="M155 50.2c-.1 0-.3 0-.3-.2l.3-.2.2.2c0 .2-.1.2-.2.2m295-.6c-.3 0-.5 0-.5-.3l.7-.2c.1 0 .2 0 .3.2 0 .2-.3.3-.5.3m-39.4.1c-.3-.2.1-.4.3-.4h.1c.2.2-.2.4-.4.4"/><path fill="#313234" d="M174.7 49.3h-1c-.2-.7.7-.6 1.5-.6 0 .2-.5.3-.5.6"/><path fill="#f3f2f1" d="M154.8 49c-.3-.2.1-.4.3-.4h.1c.2.2-.2.4-.4.4m39-1.3c-.3-.2.1-.4.3-.4h.1c.2.2-.2.4-.4.4m.7-1.9c-.2 0-.3 0-.3-.2s.1-.2.2-.2c.2 0 .3.1.3.2 0 .2-.1.2-.2.2"/><path fill="#737677" d="M438.6 45.2c-.2 0-.3-.2-.3-.3l.2-.2c.2 0 .3.1.3.2 0 .2-.1.3-.2.3m-255.1-.9h-1v-1.4h1v1.4"/><path fill="#f3f2f1" d="M455 44h-.1c-.2-.2.2-.4.4-.4.3.1-.1.3-.4.3"/><path fill="#737677" d="M439.3 43.6c0-.4.9-.3 1.4-.4 0 .4-.9.3-1.4.4m.9-1c0-.4.7-.3 1-.4 0 .4-.6.3-1 .4"/><path fill="#313234" d="M408 42.2c.3-.4.7-.7 1.5-.7.3.8-.6.7-1.4.7m29.8-.3c-.3-.2.1-.4.3-.4h.1c.2.2-.2.4-.4.4"/><path fill="#fcee9b" d="M431 40.5c0-1 .5-1.4 1-1.4.7 0 1.4 1.1-1 1.4"/><path fill="#737677" d="M448.2 39.2h-.2c0-.2.2-.3.3-.3l-.1.3"/><path fill="#313234" d="M449 39.5c-.3 0-.4-.3-.8-.3l.1-.3.2-.4c.4 0 .5.3 1 .3 0 .3-.5.4-.5.7"/><path fill="#f3f2f1" d="M459.3 38.9c-.3-.2.1-.4.4-.4.3.1-.2.4-.4.4m-18.5-.4.9-.7-.9.7"/><path fill="#fcee9b" d="M440.8 38.5c-.2-.6.3-.6.9-.7l-.9.7"/><path fill="#313234" d="M441.7 38.5h-.9l.9-.7h.5c0 .3-.5.4-.5.7"/><path fill="#f3f2f1" d="M404.5 38c-.2 0-.3 0-.3-.2l.2-.2c.2 0 .3.1.3.2 0 .2-.2.2-.2.2m-5.7-6h-1.4c-.2-.7.3-.8.5-1.3.8 0 1 .6 1 1.4"/><path fill="#fcee9b" d="m181 31.6.3-.3.5-.3-.3.4-.5.2"/><path fill="#f3f2f1" d="M196.2 30c-.3-.1.2-.3.4-.3.3.1-.1.3-.4.3"/><path fill="#5f6264" d="M204.5 241.5c-.7 0-1-.2-1-.7h1.5v.7h-.5"/><path fill="#f9d845" d="M163.1 241.2c-.3-.2.1-.4.4-.4.3.2-.1.4-.4.4"/><path fill="#5f6264" d="M342 240.9h-.1c-.3-.2.2-.4.4-.4.3.1-.1.4-.4.4"/><path fill="#f9d845" d="M167.5 239.8c-.3-.1.1-.3.3-.3h.1c.2.1-.2.3-.4.3m10.2-.3h-1v-.7h1v.7m260.4-.5c-.1 0-.3 0-.3-.2s.2-.2.3-.2c.1 0 .2 0 .2.2s-.1.2-.2.2"/><path fill="#5f6264" d="M273 239c-.2 0-.3 0-.3-.2s.1-.2.2-.2.3 0 .3.2-.2.2-.3.2m89.4-.2c-.4 0-.5-.3-1-.3.1-.3.5-.4.5-.7.4 0 .5.3 1 .3 0 .3-.5.4-.5.7"/><path fill="#f9d845" d="M318.3 239c-.6 0-1.2-1-.3-1.2.3 0 1 .5 1 .7-.2.3-.5.4-.7.4m129.4-2.5h-.1c-.2-.1.2-.3.4-.3.3.1-.1.3-.3.3m-5-.4h-1v-.6h1v.7"/><path fill="#5f6264" d="M344.8 236c-.3 0-.5 0-.5-.3l.7-.2c.1 0 .2 0 .3.2 0 .2-.3.3-.5.3"/><path fill="#f9d845" d="M447.2 235.4h-.1c-.2-.1.2-.3.4-.3.3.1-.1.3-.3.3M388 235c-.3 0-.5-.3-.4-.7 0-.3.2-.7.6-.7l.4.1c.2.7-.3 1-.5 1.4"/><path fill="#5f6264" d="M357 234.8c-.2-.2.2-.4.4-.4.3.1-.1.4-.4.4m-202.3 0c-.3 0-.7-.1-.9-.4-.2-.6.2-.7.8-.7a11.6 11.6 0 0 1 1.6 0h.5c0 .5-1 1-2 1m5.3-1.5.1-.2c0 .2-.1.2-.2.2"/><path fill="#313234" d="M160 233.2h-.4a1 1 0 0 0-.4-.2c0-.2.2-.3.4-.3.3 0 .5.2.5.3l-.2.2"/><path fill="#5f6264" d="M408.2 232c-.3-.1.1-.3.3-.3h.1c.2.1-.2.3-.4.3"/><path fill="#313234" d="m403.2 232 .4-.7h.1v.7h-.5"/><path fill="#f9d845" d="M403.2 232c-.7 0-1-.2-1-.7h1.4l-.4.8"/><path fill="#5f6264" d="M345.4 231.4h-.1c-.2-.2.2-.4.4-.4.3.2-.1.4-.3.4m3.3-.4c-.9 0-.4-.8-.5-1.4.9.1 1.1.6 1 1.4h-.5"/><path fill="#f9d845" d="M257 231c-1.5-.4-2.5-1.1-2.3-2.7 1.4.4 3.8 1.4 2.4 2.7"/><path fill="#5f6264" d="M342 230h-.1c-.3-.2.2-.4.4-.4.3.2-.1.4-.4.4m-186.6-.4c0-.2.4-.2.8-.3v.2l-.8.1"/><path fill="#313234" d="m156 229.5.1-.2h.1c0 .1 0 .2-.2.2"/><path fill="#5f6264" d="m363.9 228.3-.6-.3v-.7h.5c.6 0 .8.2.8.5 0 .2-.4.5-.7.5"/><path fill="#f28852" d="M289.3 228.3c-.3-.2.1-.4.3-.4h.1c.2.2-.2.4-.4.4"/><path fill="#5f6264" d="M151 228.3c-.7 0-.6-.5-.6-1h1.5c-.3.2-.6.5-.5 1a2 2 0 0 1-.3 0m194.3-.3h-.1c-.2-.2.2-.4.4-.4.3.2-.1.4-.3.4"/><path fill="#f9d845" d="M192 227.8h-.2a1 1 0 0 0-.4-.2c0-.2.2-.3.4-.3s.5.1.5.3c0 .2-.1.2-.2.2m-5.7.2h-1v-.7h1v.7"/><path fill="#5f6264" d="M153.6 228c-1 0-1.3-.4-1.3-1h1.5v1h-.2m217.6-1.4h-.1c-.2-.2.2-.4.4-.4.3.2-.1.4-.3.4m-218.9 0c-.4 0-.4-.3-1-.3.2-.3.6-.4.6-.7.3 0 .4.3 1 .3-.2.3-.6.4-.6.7m202-.5c-.1 0-.3 0-.3-.2l.3-.2.2.2c0 .2-.1.2-.2.2"/><path fill="#313234" d="M201.4 226c-.3 0-.5-.4-.4-.6 0-.3.2-.6.6-.6l.4.1v.7h-.1c-.3 0-.3.1-.4.3"/><path fill="#5f6264" d="M362.6 225.1c-.1 0-.3 0-.3-.2s.2-.2.3-.2c0 0 .2 0 .2.2s-.1.2-.2.2m-90.8-.1v-.1c-.3-.1 0-.4.3-.4.3.2-.1.4-.3.4"/><path fill="#f9d845" d="M318 223.5c0-.3.6-.2 1-.3 0 .3-.6.3-1 .3m12.6-.6c-.6 0-1-.2-1-.7h1.5v.7a4 4 0 0 1-.5 0m-75.5 0c0-.4.6-.3 1-.4 0 .4-.6.3-1 .4"/><path fill="#5f6264" d="M366 221.7c-.1 0-.3 0-.3-.2l.3-.2.2.2c0 .2-.1.2-.2.2m-83.5-.5c-.3-.2.1-.4.3-.4h.1c.2.2-.2.4-.4.4m-131.5.1c-.5 0-.7-.3-.7-.6s.2-.6.6-.6h.5v1l-.5.2m290.4-.4c-.3-.2.1-.4.4-.4.3.1-.1.4-.4.4m-24.8 0c-.3-.2 0-.4.3-.4.3.1 0 .4-.3.4m-253.4-.7c-.3-.2.1-.4.4-.4.3.2-.1.4-.4.4m117.9-.4c-1 0-1.6-.2-1.5-1h.1c.4 0 .6 0 .8-.2l.8-.1h.2v1.3h-.5m90.9-.6c-.6 0-.7-.4-.7-.7h.1c.3 0 .4-.2.4-.4.6 0 .4.6.5 1a2 2 0 0 1-.3 0m-222.3.1c-.3-.2.1-.4.3-.4h.1c.2.2-.2.4-.4.4"/><path fill="#f9d845" d="m265.6 218.7-.2-.2c0-.2.1-.3.2-.3l.3.3-.3.2"/><path fill="#5f6264" d="M236.1 218.1c0-.3.6-.2 1-.3 0 .3-.6.2-1 .3"/><path fill="#f28852" d="M292.7 217.8c-.3-.2.1-.4.4-.4.3.2-.2.4-.4.4"/><path fill="#5f6264" d="M215.8 217.8h-.1c-.2-.2.2-.4.4-.4.3.2-.1.4-.3.4m-67.8-.7c-.3-.1.1-.4.4-.4.3.2-.2.4-.4.4m226-.3h-1v-.7h1v.7"/><path fill="#f28852" d="M292.8 216.1c-1.2 0-1.3-.9-.6-1.4.8.1 1 .6 1 1.4a3 3 0 0 1-.4 0"/><path fill="#5f6264" d="M211.4 216.1h-.1c-.2-.2.2-.4.4-.4.3.2-.1.4-.3.4m-47.8-.3c-.3-.2.1-.4.4-.4.2.2-.2.4-.4.4"/><path fill="#f9d845" d="M323.7 215.4c-1.4 0-1.6-1.5-.8-2 .3.2.7.3 1.4.3.2.8 0 1.3-.5 1.7h-.1"/><path fill="#5f6264" d="M167 215.5c-.4 0-.6-.3-.6-.6s.2-.6.6-.6l.4.1v1h-.4m268.5-.4c-.3 0 .1-.3.3-.3h.1c.2.2-.2.4-.4.4m-274.1-.1c-1 0-1.3-.3-1.3-1h1.5v1h-.2m1.2-1c-.4 0-.5-.3-1-.3 0-.3.5-.3.5-.7.4.1.5.4 1 .4-.1.3-.5.3-.5.7"/><path fill="#f9d845" d="M408 213.8h-.3v-1.4h.3c.7 0 1 .3 1 .7 0 .3-.3.7-1 .7"/><path fill="#5f6264" d="M364.8 213.7c-.7-.6-1.7-.9-1.5-2h2c.3 1-.6 1.2-.5 2"/><path fill="#f9d845" d="M179.7 213c-.3-.1.1-.3.3-.3h.1c.2.2-.2.4-.4.4m154-1.4h-.1c-.2-.2.2-.4.4-.4.3.2-.1.4-.3.4m-152.3-.3c-.8 0-1-.4-.8-1 .5.3 1.8 0 1.5 1a4 4 0 0 1-.7 0"/><path fill="#5f6264" d="m173.5 210.9-.2-.2c0-.2.1-.3.2-.3l.3.3-.3.2m195.9-1.4c-.1 0-.3 0-.3-.2s.2-.2.3-.2l.2.2c0 .2-.1.2-.2.2m-61.2.2h-1v-.7h1v.7m-161.2-.3h-.5c-.2-.8.8-1.4 1.5-1.4.6 0 1 .3 1 1h-.3c-.4 0-.6 0-.9.2l-.8.2"/><path fill="#f9d845" d="M343.9 209c-.3-.2.1-.4.3-.4.3.2-.1.4-.3.4"/><path fill="#313234" d="M303.9 209c-1.3 0-1.2-1.3-.5-1.7 1.2 0 1.1 1.2.5 1.7"/><path fill="#5f6264" d="M212.8 207.6h-.5l.3-.7h.9a10.7 10.7 0 0 0 .7 0c0 .5-.6.7-1.4.7"/><path fill="#313234" d="M212.3 207.6c-.3-.5 0-.6.3-.7 0 .3-.2.5-.3.7m-66.3 0c-.2-.1.2-.3.4-.3.3.1-.1.3-.3.3"/><path fill="#5f6264" d="M430.6 207.3c-.3-.2.1-.4.3-.4h.1c.2.2-.2.4-.4.4"/><path fill="#f9d845" d="m389.4 207.2-.3-.6c0-.2.1-.2.2-.2.2 0 .4.3.3.5 0 .2 0 .3-.2.3"/><path fill="#313234" d="M290.7 206.6v-.1c.2-.2.7-.2 1-.2 0 .3-.6.2-1 .3"/><path fill="#5f6264" d="m444.4 205.8-.2-.2c0-.2.1-.2.2-.2s.3 0 .3.2l-.3.2"/><path fill="#313234" d="M299 206c-.2-.2.2-.4.4-.4.3.1-.1.3-.3.3"/><path fill="#5f6264" d="M160.3 206c-.5 0-.6-.4-.7-.8h.2c.3 0 .3-.1.3-.3.6 0 .4.6.5 1a2 2 0 0 1-.3 0m-5.5.1c0-.4.6-.3 1-.4 0 .3-.6.2-1 .3m-1.5-.3c-.6-.1-.8-.6-1.4-.7 0-.5.6-.7 1.4-.7h.5c.2.7-.3 1-.5 1.4"/><path fill="#f9d845" d="M258.6 204.6c-.3-.2.1-.4.4-.4.3.2-.2.4-.4.4M394 204v-.1c-.2-.2.2-.4.4-.4.3.2-.1.4-.3.4"/><path fill="#313234" d="M180.3 204c-1.3 0-1.4-1-.7-1.5.9.1 1.1.6 1 1.4h-.3"/><path fill="#f3f2f1" d="m456.3 203.5-.1-.3h.2l-.1.3"/><path fill="#313234" d="M456 203.6h-.1c-.2-.2 0-.3.3-.4v.3h-.2"/><path fill="#f9d845" d="M326.1 203.1c-.2 0-.4-.3-.3-.6 0-.1 0-.2.2-.2.1 0 .3.3.3.6l-.2.2"/><path fill="#f3f2f1" d="M139.3 202.6h-.1c-.2-.2.2-.4.4-.4.3.1-.1.4-.3.4"/><path fill="#f9d845" d="m413.7 201.4-.2-.2c0-.2.1-.2.2-.2s.3 0 .3.2l-.3.2m-209.8 0c-1.1 0-2.4-.8-1.9-2h.3c.6 0 .7.4.7.8 0 .6 1.7.2 2 .6-.2.5-.7.6-1.1.6m3.1-.6h-1v-.6h1v.6"/><path fill="#313234" d="M429 200.2c-1.3-.3-.5-.5-.4-1.4.8.3 1.1 1 .5 1.4"/><path fill="#5f6264" d="M292.2 199.8c0-.3.6-.2 1-.3 0 .3-.7.2-1 .3"/><path fill="#313234" d="M416.9 199.1c-.6-.1-1-.4-1-1h.2c.6 0 .7.4 1.3.4-.1.2-.5.3-.5.6"/><path fill="#f9d845" d="M325.8 198.7c-.1 0 0-.2.2-.3l.6-.3-.3.4-.5.2"/><path fill="#5f6264" d="M169.3 198.9c-.5 0-.4-.4-.4-.7 0-.4.1-.8-.4-.8 0-.2.5-.3 1-.3h.9c.1.8-.1 1.3-.5 1.7a2 2 0 0 1-.6.1m81.5-.4c-1.4 0-1.2-1.6-.5-2 .3.2.8.6 1 1l-.5 1"/><path fill="#313234" d="M250.9 198.5h-.1l.6-1c.2.3.2.7-.2 1h-.3"/><path fill="#5f6264" d="M171.1 198c-.1 0-.3-.1-.2-.2 0-.2 0-.2.2-.2.1 0 .2 0 .2.2s0 .2-.2.2"/><path fill="#f9d845" d="M206 197.8c-.3-.2.1-.4.3-.4h.1c.2.2-.2.4-.4.4m-21-.7c-.2-.1.2-.3.4-.3.3.1-.1.3-.3.3"/><path fill="#313234" d="M372 196.8c.1-.4 1-.3 1.5-.4 0 .4-.9.3-1.4.4"/><path fill="#5f6264" d="M178.6 196.4c0-.3.6-.2 1-.3 0 .3-.6.3-1 .3"/><path fill="#313234" d="M363.9 195.8h-.1c-.2-.2.2-.4.4-.4.3.2-.1.4-.3.4"/><path fill="#5f6264" d="M163 195.4c-.8 0-1-.6-1-1.3 1 0 1.2.5 1 1.3"/><path fill="#313234" d="M329.7 192.7h-1v-.7h1v.7"/><path fill="#5f6264" d="M177.7 192.7c-.3 0-.5-.2-.5-.3.2-.2.5-.3.7-.3.1 0 .2 0 .3.3-.1.2-.3.3-.5.3"/><path fill="#f3f2f1" d="M454 192.4c-.6 0-1-.4-1-.7 0-.4.4-.7 1-.7h.4v1.4h-.3"/><path fill="#5f6264" d="m167.2 192.3-.2-.3c0-.1 0-.2.2-.2l.2.2c0 .2 0 .3-.2.3"/><path fill="#f9d845" d="m266.1 192-.2-.3c0-.2 0-.2.2-.2.1 0 .2 0 .2.2s0 .2-.2.2"/><path fill="#5f6264" d="M163.3 192c-.6 0-.7-.3-1.2-.3.2-.3.5-.6.5-1 .8 0 1 .6 1 1.3h-.3"/><path fill="#313234" d="M154.4 191.7h-.1c-.2-.2.2-.4.4-.4.3.2-.1.4-.3.4m135.3-.7c-1-.2-1-.5-.5-1h1c.2.5-.4.6-.5 1"/><path fill="#5f6264" d="M165.8 190.9c-.2 0-.3-.1-.3-.2 0-.2.1-.2.2-.2s.3 0 .3.2l-.2.2"/><path fill="#313234" d="m154.5 190.9-.2-.2c0-.2.1-.2.2-.2s.3 0 .3.2l-.3.2"/><path fill="#5f6264" d="M174.6 189.7h-.3v-1.4h.3c.7 0 1 .3 1 .7 0 .3-.3.7-1 .7m7.4-.7c-1.3-.1-.7-1-.2-1 .2 0 .4.3.3 1"/><path fill="#313234" d="M237.7 187.3h-.1c-.2-.2.2-.4.4-.4.3.2-.1.4-.3.4"/><path fill="#f3f2f1" d="M449.8 185.6c-.6 0-.6-.3-.4-.6.2-.2.6-.5.9-.5h.2l-.5.8v.3h-.2"/><path fill="#5f6264" d="m160.9 184.5-.3-.3.2-.2c.2 0 .3.1.3.2 0 .2-.1.3-.2.3m10-.9c-.7-.2-1.2-.5-1.6-.8l2 .2c0 .2-.2.4-.4.6"/><path fill="#313234" d="m171.3 183-2-.2c-.5-.3-.7-.7-.9-1.3h.5c.5 0 1 0 1-.3.6.4 1.6 1.1 1.4 1.8"/><path fill="#f3f2f1" d="M365.8 182.2c-.3-.1.1-.4.3-.4h.1c.2.2-.2.4-.4.4m-91.2-1.2.3-.2.5-.3-.3.3-.5.3m-35.3-1.7-.2-.2c0-.2 0-.3.2-.3.1 0 .2.1.2.3 0 .1 0 .2-.2.2m-28.3-.6c-.5 0-.6-.3-.4-.5.2-.3.6-.6 1-.6h.2l-.5.8v.3h-.3m105.5-.7h-1v-.6h1v.6m-66.9-.4c-.2 0-.3-.1-.3-.2 0-.2.1-.3.2-.3s.3.1.3.3l-.2.2m-107 .1c0-.3.6-.3 1-.3 0 .3-.6.2-1 .3m218.4-.3h-.1c-.3-.2.2-.4.4-.4.3.2-.1.4-.4.4m86.2-.4c0-.3.6-.2 1-.3 0 .3-.6.2-1 .3m-297.2 0s0-.2.2-.2v.2h-.2"/><path fill="#313234" d="M150 177.1v-.2l1.4-.1c-.1.3-.8.3-1.3.3"/><path fill="#f3f2f1" d="M144.1 177.1c-.3-.1.2-.3.4-.3.3.1-.2.3-.4.3m217.9-.3c-.5 0-.6-.3-.7-.7h.2c.3 0 .3-.2.3-.3.6 0 .5.6.5 1h-.3m-13.8-.2.3-.2.5-.3-.3.3-.5.2m108.2-.5c0-.3.6-.3 1-.3 0 .3-.7.2-1 .3m-70.7 0h-1c-.2-.7.7-.6 1.5-.7 0 .3-.5.4-.5.7"/><path fill="#737677" d="M421.8 174.7c.2-.4.6-.6 1.3-.6h.1c.3.7-.7.6-1.4.6"/><path fill="#f3f2f1" d="M377.5 174.8c-.3-.2.1-.4.3-.4h.1c.2.2-.2.4-.4.4m-136.9 0c-.3-.2.1-.4.3-.4h.1c.2.2-.2.4-.4.4m218.7-.4c-1.8-.3-.7-.8 0-.8.4 0 .7.2 0 .8m-121.3-1h-1v-.7h1v.7m18.5-1h-2c.5-.8.2-2 1.8-2h.2v2m-98.5-.2.3-.2.5-.3-.3.3-.5.2m-64.2-.2c-.3-.1.1-.3.4-.3.3.1-.2.4-.4.4m61.4-.7c-.3-.2.1-.4.3-.4h.1c.2.2-.2.4-.4.4m145.7-.4c-.3-.1.1-.3.3-.3h.1c.2.1-.2.3-.4.3m-188.6 0c-.6 0-.4-.6-.5-1l.8-.2h.3a3.8 3.8 0 0 0 1.3-.1c0 .8-1.9.4-2 1.3m-8.2-.6c-.2-.2.2-.4.4-.4.3.2-.1.4-.3.4m150.3-.4c-.4 0-.8-.2-.8-.3-.3-.4.2-.6.7-.6.4 0 .9.2.7.6l-.6.2m-5.2.1c-1 0-1-.9-1-1.7h.4c1 0 .4 1.1.6 1.7m-60.1-2a2 2 0 0 1-.8-.2 2 2 0 0 0-1-.2c0-.5.6-.7 1.4-.7h.5v1m-33.3 0-.3-.3.3-.2.2.2c0 .2-.1.3-.2.3m-44.9-.2h-.7c.4-.4.5-.8.5-1.4h2.4c-.6.5-.7 1.4-2.2 1.4m87.5-.7H297c-.1-.6.5-.6.5-1h1v1m86.7-.7c-1-.2-1-.6-.5-1h1c.1.5-.5.5-.5 1m7.4-.3c-.3-.2.1-.4.3-.4h.1c.2.1-.2.4-.4.4"/><path fill="#313234" d="M150.5 166h-.1c-.2-.2.2-.4.4-.4.3.1-.1.4-.3.4"/><path fill="#f3f2f1" d="m317.8 165.5-.3-.1a1 1 0 0 0-.4-.1c0-.2.2-.3.4-.3.3 0 .5 0 .5.3l-.2.2m-18.8.1c-.2-.2.2-.4.4-.4.3.2-.1.4-.3.4m-21.1-1h-1v-.7h1v.7m12.5-.5c-.2 0-.3 0-.3-.2s.2-.2.2-.2c.2 0 .3 0 .3.2s-.1.2-.2.2m-66.3-1-.2-.2c0-.2 0-.2.2-.2.1 0 .2 0 .2.2 0 .1 0 .2-.2.2m49.5-.2h-1v-.7h1v.7"/><path fill="#737677" d="m171 163-.1-.1c-.3-.2.1-.4.4-.4.3.2-.2.4-.4.4"/><path fill="#313234" d="m151.1 162.8-.2-.2c0-.2.1-.3.2-.3s.3.1.3.3l-.3.2"/><path fill="#f3f2f1" d="M446.1 162.2c-.2 0-.5-.2-.5-.3l.7-.3c.2 0 .3.1.3.3 0 .2-.3.3-.5.3m-39.4 0c-.3-.1.2-.4.4-.4.3.2-.1.4-.4.4m-78.2 0c-.6 0-.7-.3-1.3-.3.1-.3.5-.4.5-.7h1v1h-.2"/><path fill="#737677" d="M170.9 161.9h-1c-.2-.8.7-.7 1.4-.7 0 .3-.5.3-.4.7"/><path fill="#f3f2f1" d="M292.2 161.5h-2c.8-1-.7-1.5 1.5-1.7-.4 1 .7 1 .5 1.7"/><path fill="#313234" d="M151 161.5h-.1c-.2-.1.2-.3.4-.3.3.1-.1.3-.3.3"/><path fill="#f3f2f1" d="M273.2 160.2c-.7 0-1-.2-1-.7h1.5v.7a4 4 0 0 1-.5 0m-83.2 0h-.1c-.3-.2.1-.4.4-.4.2.2-.2.4-.4.4m104.8-.3h-.1c-.2-.2.2-.4.4-.4.3.1-.1.4-.3.4m4.8-.4h-1v-.7h1v.7m-21.5-.7c-.8-.7-.2-1 .3-1s1 .3-.3 1m22.4-.3c0-.4.6-.3 1-.4 0 .4-.6.3-1 .4m-37 0h-1v-.7h1v.7m-72.8-.1-.3-.3.3-.2.2.2c0 .2-.1.3-.2.3"/><path fill="#737677" d="m434.7 157.7-.3-.2c0-.2.2-.3.3-.3l.2.3-.2.2m-255.1-.9h-1v-1l1-.1v1"/><path fill="#313234" d="M178.6 155.7v-.3h1v.3h-1"/><path fill="#f3f2f1" d="M451 156.5c-.2-.2.2-.4.4-.4.3.2-.1.4-.3.4"/><path fill="#737677" d="M435.4 156.1c0-.4.9-.3 1.5-.3-.1.4-1 .3-1.5.3m1-1.1c0-.2.6-.2 1-.2 0 .3-.6.2-1 .3"/><path fill="#f3f2f1" d="M333.2 155.1h-.1c-.2-.2.2-.4.4-.4.3.2-.1.4-.3.4m71-.3c.2-.5.6-.7 1.4-.7.3.7-.6.6-1.4.7"/><path fill="#737677" d="M434 154.4c-.3-.1.1-.3.3-.3h.1c.2.1-.2.3-.4.3"/><path fill="#f3f2f1" d="M280.9 154c-.6 0-.8-.3-.7-.6 0-.4.3-.7.8-.7.3 0 .6.1 1 .4v.6l-1.1.3m94.1-.6c-.2-.2.2-.4.4-.4.3.2-.1.4-.3.4"/><path fill="#737677" d="M427.1 153c0-1 .5-1.4 1-1.4.8 0 1.4 1.1-1 1.5"/><path fill="#313234" d="m201.8 152.3-.3-.3.3-.2.2.2c0 .2-.1.3-.2.3"/><path fill="#f3f2f1" d="M445.2 152c-.4 0-.5-.3-1-.3 0-.3.5-.3.5-.7.4 0 .5.4 1 .4-.2.2-.5.3-.5.6"/><path fill="#313234" d="M229.9 152c-.3-.1 0-.3.3-.3.3.2-.1.4-.3.4"/><path fill="#f3f2f1" d="M455.5 151.4h-.1c-.2-.2.2-.4.4-.4.3.2-.1.4-.3.4"/><path fill="#737677" d="M437.8 151h-1c-.2-.7.8-.6 1.5-.7 0 .3-.5.4-.5.7"/><path fill="#f3f2f1" d="M400.6 150.6c-.1 0-.3-.1-.3-.3l.3-.2.2.2c0 .2-.1.3-.2.3m-34.9-.3h-1v-.6h1v.6m-21.8-.9c-.3-.2.1-.4.3-.4.3.1-.1.4-.3.4M305 149h-.2c-.2-.2.2-.4.4-.4h.1c.2.2-.2.4-.4.4"/><path fill="#313234" d="M261 149c-.3 0-.5-.2-.5-.3.2-.2.5-.3.7-.3.1 0 .2 0 .3.3 0 .2-.3.2-.5.2m29-.7-.3-.1a1 1 0 0 0-.4-.1c0-.2.2-.3.4-.3.3 0 .5 0 .5.3l-.2.2m7.9-.2c-.5 0-1-.4-.9-1l.7-.3c.1 0 .3 0 .5.2h1.3c-.1.6-1 1-1.6 1"/><path fill="#f3f2f1" d="M383.8 147.6h-1.5v-1h1.5v1m-79.3.1a77 77 0 0 1 .3 0 2 2 0 0 1-.3 0"/><path fill="#313234" d="M304.3 147.6c-.5 0-.4-.6-.4-1 .4 0 .4.4 1 .4v.6h-.6"/><path fill="#f9d845" d="M247.1 145.1h-.3a1 1 0 0 0-.4-.2c0-.2.2-.3.5-.3.2 0 .4.1.4.3 0 .2 0 .2-.2.2m17.8-.1c-1.5-.2-.9-1-.4-1 .3 0 .5.2.4 1"/><path fill="#f3f2f1" d="M395 144.6h-1.5c-.2-.7.3-1 .5-1.4.8.1 1.1.6 1 1.4"/><path fill="#5f6264" d="m177.2 144.1.2-.3.6-.3-.3.4-.5.2"/><path fill="#f9d845" d="M253.3 143.6h-.1c-.2-.2.2-.4.4-.4.3.2-.1.4-.3.4m-59.1-.7h-1v-.7h1v.7m-1.8-.3h-.1c-.2-.2.2-.4.4-.4.3.2-.1.4-.3.4"/><path fill="#a9aba8" d="M549 341.6h-.1c-.2-.1.2-.3.4-.3.3.1-.1.3-.3.3m-340.7.1c-.6 0-1-.3-1-.7h1.5v.6a4 4 0 0 1-.5 0"/><path fill="#737677" d="M167 341.3c-.3-.2.1-.4.3-.4h.1c.2.2-.2.4-.4.4"/><path fill="#a9aba8" d="M465.7 341h-.1c-.2-.2.2-.4.4-.4.3.2-.1.4-.3.4"/><path fill="#f28852" d="M345.8 341c-.3-.2.1-.4.3-.4h.1c.2.2-.2.4-.4.4"/><path fill="#a9aba8" d="M107 340.6c.3-.7 1-1 1.5-1.7 1.3.5-.5 1.7-1.5 1.7m-11.1 0h-.1c-.2-.1.2-.4.4-.4.3.2-.1.4-.3.4m-40.9-.3h-.1c-.2-.2.2-.4.4-.4.3.2-.1.4-.4.4"/><path fill="#737677" d="M171.4 340c-.3-.2.1-.4.3-.4h.1c.2.1-.2.4-.4.4"/><path fill="#a9aba8" d="M180.6 339h1-1"/><path fill="#737677" d="M181.5 339.6h-1v-.5h1v.5"/><path fill="#313234" d="M180.6 339h1-1"/><path fill="#a9aba8" d="M441.7 339h.5-.5"/><path fill="#737677" d="M442 339.1c-.1 0-.3 0-.3-.2h.5c0 .2-.1.2-.2.2"/><path fill="#313234" d="M441.7 339c0-.2.1-.3.2-.3.2 0 .3.1.3.2h-.5"/><path fill="#f28852" d="M276.8 339.1c-.1 0-.3 0-.3-.2l.3-.2.2.2c0 .2-.1.2-.2.2"/><path fill="#313234" d="M366.2 339c-.4-.2-.5-.4-1-.4.1-.3.5-.4.5-.7.4 0 .5.3 1 .3-.1.3-.5.4-.5.7"/><path fill="#f28852" d="M322.2 339v-1c.4.2.7.4.6.6-.1.3-.3.4-.6.4"/><path fill="#313234" d="M322.2 339c-.7 0-1.3-.9-.3-1.1l.4.1a65 65 0 0 1-.1 1"/><path fill="#a9aba8" d="M38.5 337.6c-1.9 0-2-1.2-2.6-2 .9 0 1.5.3 2.6.3h.8a2 2 0 0 1-.5 1.7h-.3m25.1-.7c-.4-.4-1.8-.1-1.4-1l3.9-.7c.8 1.7-2.6.5-2.5 1.7"/><path fill="#313234" d="M451.5 336.6c-.3-.2.2-.4.4-.4.3.2-.1.4-.4.4"/><path fill="#737677" d="M446.6 335.8h-1v-.3h1v.3"/><path fill="#313234" d="M446.6 336.2h-1v-.4h1v.4"/><path fill="#f28852" d="M348.6 336.2c-.2 0-.4-.2-.4-.3.2-.2.5-.3.7-.3 0 0 .2 0 .2.3 0 .2-.2.3-.5.3"/><path fill="#a9aba8" d="M545.3 335.5a1 1 0 0 1-.8-.3c-.1-.8 1.4-.4 1.5-1 1.1.4.2 1.3-.7 1.3"/><path fill="#737677" d="M451 335.5c-.2-.1.2-.3.4-.3.3.1-.1.3-.3.3"/><path fill="#313234" d="M392 335.2c-.4 0-.6-.4-.6-.7 0-.4.2-.8.7-.8l.4.1c.2.7-.3 1-.5 1.4"/><path fill="#f28852" d="M361 334.9h-.2c-.2-.2.2-.4.4-.4h.1c.2.2-.2.4-.4.4"/><path fill="#737677" d="M158.6 334.9c-.4 0-.7-.1-1-.4-.2-.6.3-.7 1-.7h.7a11.5 11.5 0 0 0 1.3 0c0 .5-1.1 1.1-2 1.1"/><path fill="#a9aba8" d="M80.7 334.2c-.9-.1-1.1-.6-1-1.4h.3c1.3 0 1.4.9.7 1.4m386.2-.7h-.3V332h.3c.7 0 1 .4 1 .7 0 .4-.3.7-1 .7"/><path fill="#737677" d="m163.8 333.4-.3-.1a1 1 0 0 0-.4-.1c0-.2.2-.3.4-.3.3 0 .5 0 .5.3l-.2.2"/><path fill="#a9aba8" d="M40.4 332.8c-1.5 0-1.3-1.5-.6-2 .6.5 2 1.2 1 2h-.4"/><path fill="#737677" d="M412 332.2c-.2-.2.2-.4.4-.4.3.1-.1.4-.3.4m-5 0c-.7 0-1-.2-1-.7h1.5v.6h-.5"/><path fill="#a9aba8" d="M76.7 331.8c-.4 0-.5-.3-.5-.6 0-.2.3-.5.6-.5h.5v.8H77c-.3 0-.3.1-.3.3h-.1"/><path fill="#f28852" d="M349.2 331.5c-.3-.2.1-.4.3-.4h.1c.2.2-.2.4-.4.4"/><path fill="#f3f2f1" d="m574.5 331-.3-.2c0-.2.2-.2.3-.2 0 0 .2 0 .2.2l-.2.2"/><path fill="#f28852" d="M352.6 331.2h-.2v-1.4c.6.1.8.6.6 1.3h-.4"/><path fill="#313234" d="M352.4 331.2c-.6-.2-.2-1-.3-1.4h.2v1.4"/><path fill="#f7f7f6" d="M261 331.1c-1.6-.4-2.7-1-2.5-2.7 1.4.4 3.9 1.4 2.5 2.7"/><path fill="#f3f2f1" d="M576.3 330.5h-.1c-.2-.2.2-.4.4-.4.3.1-.1.4-.3.4m-557.4 0c-.3-.2.1-.4.3-.4h.1c.2.1-.2.4-.4.4"/><path fill="#313234" d="M345.8 330.1c-.3-.1.1-.4.3-.4h.1c.2.2-.2.4-.4.4"/><path fill="#a9aba8" d="M96.1 330.2c-.8 0-.6-.7-1.3-.8.1-.2.4-.4.7-.4.7 0 1.6.5 1.3 1.1l-.7.1"/><path fill="#737677" d="M159.1 329.8c0-.4.6-.3 1-.4 0 .4-.6.3-1 .4"/><path fill="#a9aba8" d="M114.9 329.8h-.1c-.2-.2.2-.4.4-.4.3.2-.1.4-.3.4m359.5-1.4c-.3-.1.2-.4.4-.4.3.2-.2.4-.4.4"/><path fill="#313234" d="M367.8 328.4c-.2 0-.4 0-.6-.3v-.7h.4c.7 0 .9.2.8.5 0 .2-.3.5-.6.5"/><path fill="#f28852" d="M293.2 328.4c-.3-.1.1-.4.3-.4h.1c.2.2-.2.4-.4.4"/><path fill="#737677" d="M155 328.4c-.5 0-.7-.2-.7-.5l1 .2v.3h-.4"/><path fill="#313234" d="M155.3 328h-1v-.6h1.4c-.2.2-.4.4-.4.7"/><path fill="#f28852" d="M349.2 328c-.3 0 .1-.3.3-.3h.1c.2.2-.2.4-.4.4"/><path fill="#737677" d="m196 328-.3-.2a1 1 0 0 0-.5 0c0-.3.3-.4.5-.4s.5.1.5.3c-.1.2-.2.2-.3.2m-5.6.1h-1v-.6h1v.7"/><path fill="#313234" d="M157.4 328c-.9 0-1.3-.3-1.2-1h1.5v1h-.3"/><path fill="#a9aba8" d="m112.6 327.6-.2-.2c0-.2 0-.2.2-.2.1 0 .2 0 .2.2s0 .2-.2.2m262.4-.9c-.3-.1.2-.3.4-.3.3.1-.1.3-.3.3"/><path fill="#313234" d="M156.2 326.7c-.4 0-.5-.3-1-.3.1-.3.5-.4.5-.7.4 0 .5.3 1 .3-.1.3-.5.4-.5.7"/><path fill="#a9aba8" d="M107 326.8c-.8 0-.6-.8-1.5-.8.3-.2.5-.5.5-1h.4c1.1 0 1.2.8 1 1.7h-.3"/><path fill="#f28852" d="M358.2 326.3c-.2 0-.3-.2-.3-.3l.2-.2c.2 0 .3.1.3.2 0 .2-.1.3-.2.3"/><path fill="#a9aba8" d="M205.3 326c-.3 0-.5-.2-.5-.5s.3-.6.7-.6l.4.1v.7h-.1c-.3 0-.4.2-.4.3m342.6-.3c0-.3.5-.3.9-.3 0 .3-.6.2-1 .3"/><path fill="#313234" d="M366.5 325.2c-.2 0-.3 0-.3-.2l.2-.2.3.2c0 .2-.2.2-.2.2"/><path fill="#a9aba8" d="M81.4 325.3c-.4 0-.8-.4-.7-1 .4.2.7.4 1.4.4 0 .4-.3.6-.7.6"/><path fill="#f28852" d="M275.7 325h-.1c-.2-.1.2-.3.4-.3.3.1-.1.3-.3.3"/><path fill="#a9aba8" d="M87.3 324.6c-.5 0-1 0-1.7-.3-.2-.7 0-1.3.4-1.7h.7c1.6 0 2 .9 2.3 1.7l-1.7.3m33.6-.7-.3-.2c0-.2.2-.3.3-.3l.2.3-.2.2"/><path fill="#f28852" d="M321.9 323.7c0-.4.6-.3 1-.4 0 .4-.7.3-1 .4"/><path fill="#a9aba8" d="M127.7 323.5c-.1 0-.2 0-.2-.2 0-.1 0-.2.2-.2l.2.2c0 .2 0 .2-.2.2m-28.9.2c-.3-.2.1-.4.3-.4h.1c.2.2-.2.4-.4.4"/><path fill="#f28852" d="M334.5 323c-.6 0-1-.2-1-.7h1.5v.7h-.5"/><path fill="#f7f7f6" d="M259 323c0-.3.6-.3 1-.4 0 .4-.6.3-1 .4"/><path fill="#a9aba8" d="M134.9 323h-.1c-.2-.2.2-.4.4-.4.3.2-.1.4-.3.4m235-1.1c-.2 0-.3-.2-.3-.3l.2-.2c.2 0 .3.1.3.2 0 .2-.1.3-.2.3m-245.4-.3c0-.3.6-.2 1-.3 0 .3-.6.3-1 .3m-40.6-.1c-.2 0-.3-.1-.3-.2 0-.2.1-.2.2-.2.2 0 .3 0 .3.2s-.1.2-.2.2"/><path fill="#f28852" d="M286.4 321.3h-.1c-.2-.2.2-.4.4-.4.3.2-.1.4-.3.4"/><path fill="#737677" d="M154.8 321.4c-.4 0-.6-.3-.6-.6s.2-.6.6-.6h.4v1l-.4.2"/><path fill="#a9aba8" d="M445.2 321c-.3-.2.1-.4.3-.4h.1c.2.2-.2.4-.4.4"/><path fill="#737677" d="M420.4 321h-.1c-.2-.2.2-.4.4-.4.3.2-.1.4-.3.4"/><path fill="#a9aba8" d="M139.6 320.6h-1c-.2-.7 1-.5 1-1 .5 0 .5.4.5.8l-.5.2"/><path fill="#313234" d="M140.1 320.6h-.5l.5-.2v.2"/><path fill="#737677" d="M167 320.3c-.3-.2.1-.4.3-.4h.1c.2.2-.2.4-.4.4"/><path fill="#f28852" d="M284.8 320c-1 0-1.6-.3-1.4-1 .4 0 .7-.2.9-.3l.8-.1h.2v1.3h-.5"/><path fill="#a9aba8" d="M79.3 320c-.9 0-.7-.7-1.5-.7 0-.3.5-.4 1-.4h.9v1h-.4m32.6-.3c-1.6 0-2.4-.6-3-1.4 0-.3.4-.3.9-.3h2.1v1.7"/><path fill="#f3f2f1" d="M40.1 319.6c-.3 0-.6 0-.8-.2a2 2 0 0 0-1-.1c0-1.1 1-1.7 2.4-1.7.8.5-.1 1.3-.4 2H40"/><path fill="#a9aba8" d="M375.7 319.3c-.6 0-.7-.4-.7-.7h.1c.3 0 .3-.2.4-.4.5.1.4.7.4 1a2 2 0 0 1-.2 0"/><path fill="#737677" d="M153.4 319.3v-.3l.3-.1c.3.2-.1.4-.3.4"/><path fill="#313234" d="M153.3 319.3v-.3.3"/><path fill="#f28852" d="m269.5 318.8-.3-.2c0-.2.2-.2.3-.2.1 0 .2 0 .2.2l-.2.2"/><path fill="#a9aba8" d="M138.3 318.6h-.1c-.2-.2.2-.4.4-.4.3.2-.1.4-.3.4m101.7-.4c0-.3.6-.2 1-.3 0 .3-.6.3-1 .3"/><path fill="#f7f7f6" d="M296.8 317.9a65.4 65.4 0 0 1 .1-.4h.1c.2.2 0 .3-.2.4"/><path fill="#313234" d="M296.6 318v-.1c-.2-.1 0-.2.1-.3a65.4 65.4 0 0 0 0 .3"/><path fill="#a9aba8" d="M219.6 318v-.1c-.3-.1.1-.4.3-.4h.1c.2.2-.2.4-.4.4m259.7-.7c-.3-.1.1-.3.3-.3h.1c.2.1-.2.3-.4.3"/><path fill="#313234" d="M152 317.2h-.2c-.2-.1.2-.3.4-.3h.1c.2.1-.2.3-.4.3"/><path fill="#a9aba8" d="M377.9 316.9h-1v-.7h1v.7"/><path fill="#f7f7f6" d="M296.7 316.2h-.6l-.4-1 .3-.3c.9 0 1.1.5 1 1.3a3 3 0 0 1-.3 0"/><path fill="#313234" d="M296 316.1c-.4-.2-.5-.5-.3-.9l.4 1"/><path fill="#a9aba8" d="M215.2 316.2c-.3-.1.2-.4.4-.4.3.2-.2.4-.4.4"/><path fill="#f3f2f1" d="M534.2 315.9c-.5 0-.8-.5-.8-1 0-.6.5-1 1.5-1h.4c0 1-1.1 1-1 2"/><path fill="#737677" d="M167.5 315.9c-.3-.2.1-.4.3-.4h.1c.2.2-.2.4-.4.4"/><path fill="#a9aba8" d="M110.5 315.9c-.3-.2.1-.4.3-.4h.1c.2.2-.2.4-.4.4"/><path fill="#f28852" d="M327.6 315.5c-1.5 0-1.6-1.5-.9-2 .4.2.8.3 1.4.3.3.8 0 1.3-.4 1.7h-.1"/><path fill="#737677" d="M170.9 315.6c-.4 0-.7-.3-.7-.6s.3-.6.7-.6l.4.1v1l-.4.1m268.5-.4h-.1c-.2-.2.2-.4.4-.4.3.2-.1.4-.3.4m-274.2 0c-.9 0-1.3-.3-1.2-1h1.5v1h-.3"/><path fill="#a9aba8" d="M108.2 314.9c-.8 0-.7-.6-.7-1 .4 0 .5.3 1 .3v.7h-.3m-17.2 0c0-.4.5-.3.9-.4 0 .3-.6.3-1 .4"/><path fill="#f3f2f1" d="m571 314.4-.2-.2c0-.2.2-.2.2-.2.2 0 .3 0 .3.2l-.2.2"/><path fill="#a9aba8" d="M505.1 314.5c-.3-.1.1-.3.4-.3.3.1-.2.3-.4.3m-365.4 0c.1-.4.5-.7 1.3-.7h.1c-.2.4-.6.7-1.4.7"/><path fill="#737677" d="M166.4 314.2c-.4 0-.4-.4-1-.4.2-.2.6-.3.6-.6.3 0 .4.3 1 .3-.2.3-.6.3-.6.7m245.5-.3h-.4v-1.4h.4c.7 0 1 .3 1 .7 0 .3-.3.7-1 .7"/><path fill="#a9aba8" d="M368.6 313.8c-.6-.6-1.6-.9-1.4-2h2c.3 1-.6 1.2-.6 2"/><path fill="#313234" d="M183.6 313.2h-.1c-.2-.2.2-.4.4-.4.3.2-.1.4-.3.4"/><path fill="#a9aba8" d="M516.3 312.8h-1.5v-1h1.5v1"/><path fill="#f3f2f1" d="M563.3 312.4c-.1 0-.3-.1-.3-.3l.3-.2.2.2c0 .2-.1.3-.2.3"/><path fill="#f28852" d="M337.5 311.8c-.3-.1.1-.4.4-.4.2.2-.2.4-.4.4"/><path fill="#f3f2f1" d="M74 311.8c-.8 0-.3-.7-.6-1-.3-.4-1.2-.4-1-1 .3-.3.6-.4.9-.4 1.2 0 2.3 1.7 1 2.4a2 2 0 0 1-.3 0"/><path fill="#a9aba8" d="M474.4 311.5h-1v-.7h1v.7"/><path fill="#313234" d="M185.3 311.5c-.8 0-1-.3-.8-1 .4.3 1.8 0 1.4 1a4 4 0 0 1-.6 0"/><path fill="#a9aba8" d="M92 311.5h-.1c-.2-.2.2-.4.4-.4.3.2-.1.4-.3.4"/><path fill="#737677" d="m177.4 311-.2-.2c0-.2 0-.2.2-.2.1 0 .2 0 .2.2 0 .1 0 .2-.2.2"/><path fill="#f3f2f1" d="M49.1 311.1c-.3-.1.1-.3.3-.3h.1c.2.1-.2.3-.4.3m-24.4 0c-.3-.1.2-.3.4-.3.3.1-.1.3-.4.3"/><path fill="#a9aba8" d="M127.4 310.8c-1 0-1.1-.6-1.9-.7 0-.2.3-.3.7-.3.8 0 2 .4 1.7 1h-.5m245.9-1.1c-.2 0-.3-.2-.3-.3l.2-.2c.2 0 .3.1.3.2 0 .2-.1.3-.2.3"/><path fill="#f7f7f6" d="M312.1 309.8h-1v-.7h1v.7"/><path fill="#a9aba8" d="M150.5 309.5h-.1a126.7 126.7 0 0 1 .2 0"/><path fill="#313234" d="M151 309.5h-.5v-.7a2 2 0 0 1 1.4-.7c.5 0 1 .3.9 1h-.3c-.3 0-.6 0-.8.2l-.8.2"/><path fill="#f3f2f1" d="M521.1 309h-1v-.6h1v.7"/><path fill="#f28852" d="M347.8 309.1h-.1c-.2-.2.2-.4.4-.4.3.2-.1.4-.3.4"/><path fill="#f7f7f6" d="M307.7 309c-1.2 0-1.1-1.2-.5-1.6 1.3 0 1.2 1.3.5 1.7"/><path fill="#a9aba8" d="M488.6 307.8h-.1c-.2-.2.2-.4.4-.4.3.1-.1.4-.3.4m-271.9 0h-.6c-.2-.7.2-.8.7-.8a9.4 9.4 0 0 1 1 0h.3c-.1.6-.6.8-1.4.8m-66.7 0h-.1c-.2-.2.2-.4.4-.4.3.1-.1.4-.3.4m-43.7-.2-.3-.2c0-.2.2-.2.3-.2 0 0 .2 0 .2.2s-.1.2-.2.2"/><path fill="#737677" d="M434.5 307.4c-.3-.2 0-.4.3-.4.3.2-.1.4-.3.4"/><path fill="#a9aba8" d="M393.3 307.3c-.2 0-.4-.3-.3-.6 0-.1 0-.2.2-.2.1 0 .3.3.3.6l-.2.2"/><path fill="#313234" d="M294.6 306.7c0-.3.6-.2 1-.3 0 .3-.6.2-1 .3"/><path fill="#a9aba8" d="m448.3 306-.3-.3c0-.2.2-.2.3-.2.1 0 .2 0 .2.2s-.1.2-.2.2"/><path fill="#f7f7f6" d="M303 306h-.1c-.3-.1.1-.3.4-.3.3.2-.1.4-.4.4"/><path fill="#737677" d="M164.2 306c-.6 0-.6-.3-.7-.6h.2c.2 0 .3-.2.3-.4.6 0 .4.6.5 1h-.3m-5.6 0c0-.3.6-.2 1-.3 0 .3-.6.3-1 .3m-1.4-.3c-.7-.1-.8-.6-1.5-.7.1-.5.6-.7 1.4-.7h.6c.2.8-.4 1-.5 1.4"/><path fill="#a9aba8" d="M262.5 304.7c-.3-.2.1-.4.3-.4h.1c.2.2-.2.4-.4.4"/><path fill="#f3f2f1" d="M488.5 304.3c-.3 0-.5-.1-.5-.3l.7-.2c.1 0 .2 0 .3.2 0 .2-.3.3-.5.3"/><path fill="#a9aba8" d="M398 304h-.1c-.3-.1.2-.4.4-.4.3.2-.1.4-.4.4"/><path fill="#313234" d="M184.2 304c-1.3 0-1.4-.9-.7-1.3.8 0 1.1.5 1 1.3h-.3"/><path fill="#f3f2f1" d="M128 303.4a2 2 0 0 1-.5-1.4c1 .1 1.5.7 2.4 1v.2l-2 .2"/><path fill="#a9aba8" d="M129 304c-.5-.1-.8-.3-1-.6l2-.2c0 .5-1 .3-1 .8m330.8-.3c-.3-.2.1-.4.3-.4h.1c.2.2-.2.4-.4.4"/><path fill="#f3f2f1" d="M570.4 303.4c-.3-.2.1-.4.3-.4h.1c.2.1-.2.4-.4.4m-71.7-.1h-1c.1-.3-.1-.3-.4-.3 0-.7 1.3-.4 1-1.4 1 0 .2 1.2.4 1.7"/><path fill="#f28852" d="M330 303.2c-.2 0-.4-.3-.3-.5l.1-.3c.2 0 .4.3.3.6l-.1.2"/><path fill="#a9aba8" d="M143.1 302.7c-.3-.2.1-.4.4-.4.2.2-.2.4-.4.4"/><path fill="#f3f2f1" d="M124.5 302.7h-1v-.7h1v.7"/><path fill="#737677" d="M417.6 301.5c-.1 0-.2 0-.2-.2s0-.2.2-.2c.1 0 .2 0 .2.2s-.1.2-.2.2"/><path fill="#a9aba8" d="M207.7 301.6c-1 0-2.3-.9-1.8-2h.3c.6 0 .6.3.7.7 0 .6 1.6.2 2 .7-.3.4-.7.6-1.2.6"/><path fill="#f3f2f1" d="M528 301c-.3-.2.1-.4.4-.4.3.2-.2.4-.4.4"/><path fill="#a9aba8" d="M210.8 301h-1v-.7h1v.7"/><path fill="#737677" d="m433 300.3-.6-.2.2-1.1c.7.3 1 .9.3 1.3"/><path fill="#313234" d="M432.4 300.1c-.6-.2 0-.5 0-1.2l.2.1-.2 1.1"/><path fill="#f3f2f1" d="M568 300h-.1c-.2-.2.2-.4.4-.4.3.2-.1.4-.3.4"/><path fill="#f7f7f6" d="M296 300c0-.4.6-.3 1-.4 0 .3-.6.3-1 .3"/><path fill="#737677" d="M420.8 299.3c-.6-.2-1-.5-1-1h.2c.6 0 .7.3 1.2.3 0 .3-.4.3-.4.7"/><path fill="#f28852" d="m329.6 298.8.3-.3.5-.3-.3.4-.5.2"/><path fill="#737677" d="M173.2 299c-.5 0-.4-.3-.4-.7 0-.4 0-.7-.4-.7h-.1c0-.3.6-.4 1-.4h.1a42.7 42.7 0 0 1-.2 1.8"/><path fill="#313234" d="m173.3 299 .1-1.8h.2a13.1 13.1 0 0 0 .6 0c.2.8 0 1.3-.5 1.7l-.4.1"/><path fill="#a9aba8" d="M254.7 298.6c-1.4 0-1.3-1.6-.6-2 .7.5 1.8 1.4 1 2h-.4"/><path fill="#313234" d="M175 298.1c-.1 0-.3 0-.3-.2s.2-.2.2-.2c.2 0 .3.1.3.2 0 .2-.1.2-.2.2"/><path fill="#a9aba8" d="M209.9 298h-.1c-.2-.2.2-.4.4-.4.3.1-.1.3-.3.3"/><path fill="#f3f2f1" d="M189 297.3h-.2c-.2-.2.2-.4.5-.4.3.1-.2.4-.4.4"/><path fill="#a9aba8" d="M376 296.9c0-.4.8-.3 1.4-.3 0 .3-.9.2-1.5.3"/><path fill="#737677" d="M182.5 296.6c0-.2.2-.3.5-.3v.2h-.5"/><path fill="#313234" d="M183 296.5v-.2h.5l-.5.2"/><path fill="#a9aba8" d="M367.7 295.9c-.3-.2.1-.4.4-.4.3.2-.1.4-.4.4"/><path fill="#737677" d="M167 295.5c-1 0-1.2-.6-1-1.3.8 0 1 .6 1 1.3"/><path fill="#f3f2f1" d="M139.7 295.2c-.3-.2.1-.4.3-.4h.1c.2.2-.2.4-.4.4"/><path fill="#313234" d="M333.6 292.8h-1v-.7h1v.7"/><path fill="#737677" d="M181.5 292.8c-.2 0-.4-.1-.4-.3l.6-.3c.2 0 .3.1.3.3 0 .2-.2.3-.5.3"/><path fill="#f3f2f1" d="M458 292.5c-.8 0-1.1-.3-1.1-.7 0-.3.3-.7 1-.7h.4v1.4h-.4"/><path fill="#737677" d="M171 292.4s-.2-.1-.2-.3l.2-.2c.2 0 .3.1.3.2 0 .2-.1.3-.2.3"/><path fill="#313234" d="M270 292c-.1 0-.3 0-.3-.2s.2-.2.3-.2l.2.2c0 .2-.1.2-.2.2"/><path fill="#737677" d="M167.2 292.2c-.6 0-.7-.4-1.2-.4.2-.3.5-.5.4-1 .9 0 1.2.6 1 1.3h-.2m-9-.3c-.3-.1.1-.4.4-.4.3.2-.2.4-.4.4"/><path fill="#f7f7f6" d="M293 291c-.4-.2-.3-.5.1-.9h1v.2l-1 .7"/><path fill="#313234" d="m293.6 291.1-.5-.1 1-.7c0 .4-.5.5-.5.8"/><path fill="#737677" d="m169.6 291-.2-.2c0-.2 0-.2.2-.2.1 0 .2 0 .2.2s0 .2-.2.2m-11.2 0-.2-.2c0-.2 0-.2.2-.2.1 0 .2 0 .2.2s0 .2-.2.2m20.1-1.2h-.4v-1.4h.4c.7 0 1 .3 1 .7 0 .3-.3.7-1 .7"/><path fill="#f3f2f1" d="M186 289v-.7.8"/><path fill="#313234" d="M186 289.1c-1.5-.1-.8-1-.3-1l.2.2v.8"/><path fill="#f3f2f1" d="M241.6 287.4h-.1c-.2-.1.2-.4.4-.4.3.2-.1.4-.3.4m212-1.7c-.5 0-.6-.3-.4-.5.2-.3.6-.6 1-.6h.2l-.5.8v.3h-.3"/><path fill="#737677" d="M164.8 284.6c-.2 0-.3-.1-.3-.2 0-.2.1-.3.2-.3s.3.1.3.3l-.2.2m9.9-.9c-1.3-.4-2.1-1-2.4-2h.5c.5 0 .9-.1 1-.4.7.5 2.1 1.5 1 2.4"/><path fill="#f3f2f1" d="M369.7 282.3c-.3-.1.1-.3.3-.3.3.1-.1.3-.3.3"/><path fill="#313234" d="M278.5 281.2c-.1 0 0-.2.3-.3l.5-.3-.3.4-.5.2"/><path fill="#f3f2f1" d="m243.2 279.5-.3-.2c0-.2.2-.3.3-.3l.2.3-.2.2m-28.3-.5c-.6 0-.6-.3-.4-.6.2-.3.6-.6.9-.6l.2.1-.4.7v.3h-.3"/><path fill="#f28852" d="M320.4 278.3h-1v-.2l.7-.4.3.3v.3"/><path fill="#313234" d="M319.4 278.1v-.5h1v.4l-.3-.3-.7.4"/><path fill="#f3f2f1" d="m253.4 277.8-.2-.2c0-.2 0-.2.2-.2.1 0 .2 0 .2.2 0 .1 0 .2-.2.2m-106.9.2c0-.4.6-.3 1-.4 0 .3-.7.2-1 .3m218.3-.3c-.3-.2.1-.4.3-.4h.1c.2.2-.2.4-.4.4m86.2-.4c0-.3.6-.2 1-.3 0 .3-.7.3-1 .3"/><path fill="#737677" d="M153.8 277.2c0-.4.9-.3 1.4-.3 0 .4-.9.3-1.4.3"/><path fill="#f3f2f1" d="M148 277.3c-.3-.2.1-.4.3-.4h.1c.2.1-.2.4-.4.4m218-.3c-.7 0-.7-.4-.8-.8h.2c.2 0 .3-.1.3-.3.6 0 .4.6.5 1a2 2 0 0 1-.3 0m-13.9-.1.3-.3.5-.3-.2.4-.5.2m108.1-.6c0-.3.6-.2 1-.3 0 .3-.6.2-1 .3m-70.6 0h-1c-.2-.7.7-.6 1.5-.7-.1.3-.5.4-.5.7"/><path fill="#737677" d="M425.6 274.9c.2-.4.6-.7 1.4-.7h.1c.2.7-.7.6-1.5.7"/><path fill="#f3f2f1" d="M381.4 274.9h-.1c-.2-.2.2-.4.4-.4.3.2-.1.4-.3.4m-136.9 0h-.1c-.2-.2.2-.4.4-.4.3.2-.1.4-.3.4"/><path fill="#f28852" d="M341.5 273.5h-.6v-.7h.3c0 .3.2.5.3.7"/><path fill="#313234" d="M341.8 273.5h-.3l-.3-.7h.6v.7"/><path fill="#f3f2f1" d="M360.4 272.5h-2c.5-.8.2-2 1.7-2h.3v2m-98.4-.1c-.2 0 0-.2.2-.3l.5-.3-.3.4-.5.2m-64.2-.2c-.3-.2.1-.4.3-.4h.1c.2.2-.2.4-.4.4m61.3-.7c-.2-.2.2-.4.4-.4h.1c.2.2-.2.4-.4.4m145.7-.3h-.1c-.2-.2.2-.4.4-.4.3.1-.1.4-.3.4m-188.7-.1c-.5 0-.4-.6-.5-1l1-.2h.1a3.9 3.9 0 0 0 1.4-.1c0 .9-2 .5-2 1.3m-8.1-.6h-.2c-.2-.2.2-.4.4-.4h.1c.3.2-.2.4-.4.4m150.3-.5c-.3 0-.7 0-.8-.2-.2-.4.3-.6.7-.6.5 0 1 .2.8.6 0 .2-.4.2-.7.2m-5.2.1c-1 0-1-.8-1-1.7h.5c1 0 .3 1.2.5 1.7"/><path fill="#f28852" d="M293 268h-.8a2 2 0 0 0-1-.3c0-.4.6-.7 1.4-.7h.5v1h-.1"/><path fill="#f3f2f1" d="M259.8 268c-.2 0-.3-.1-.3-.3l.2-.2c.2 0 .3.1.3.2 0 .2-.1.3-.2.3m-44.8-.2h-.8c.4-.4.5-.8.5-1.4h2.4c-.6.5-.8 1.4-2.2 1.4"/><path fill="#f28852" d="M302.4 267h-1.5c-.1-.5.5-.5.5-1h1v1"/><path fill="#f3f2f1" d="M389 266.4c-1-.2-1-.5-.4-1h1c.1.5-.5.6-.5 1m7.4-.4h-.1c-.2-.1.2-.3.4-.3.3.2-.1.4-.3.4"/><path fill="#737677" d="M154.3 266c-.3-.1.2-.3.4-.3.3.2-.1.4-.4.4"/><path fill="#f28852" d="m321.6 265.6-.2-.1a1 1 0 0 0-.5-.1c0-.2.3-.3.5-.3s.5.1.5.3l-.3.2m-18.6.1h-.1c-.3-.1.1-.3.4-.3.3.1-.2.3-.4.3m-20.9-1h-1v-.7h1v.7m12.3-.5s-.2 0-.2-.2l.2-.2.3.2c0 .2-.2.2-.3.2"/><path fill="#f3f2f1" d="M228 263.2s-.2 0-.2-.2.2-.2.3-.2c0 0 .2 0 .2.2s-.1.2-.2.2"/><path fill="#313234" d="M277.5 263h-1v-.7h1v.7"/><path fill="#737677" d="M174.8 263c-.3-.1.1-.4.3-.4h.1c.2.2-.2.4-.4.4m-19.8-.1-.3-.2c0-.2.2-.3.3-.3l.2.3-.2.2"/><path fill="#313234" d="M450 262.3c-.3 0-.5-.1-.5-.3l.7-.3.3.3c0 .2-.3.3-.5.3"/><path fill="#737677" d="M410.6 262.3c-.3-.1.1-.3.3-.3h.1c.2.1-.2.3-.4.3"/><path fill="#f28852" d="M332.4 262.3c-.6 0-.7-.3-1.3-.3.1-.3.5-.4.5-.7h1v1h-.2"/><path fill="#737677" d="M174.7 262h-1c-.2-.7.7-.7 1.5-.7 0 .3-.5.3-.5.7"/><path fill="#f28852" d="M296 261.6h-2c.4-.3.3-.6.3-.9l1.4.2c.2.2.4.3.3.7"/><path fill="#313234" d="m295.7 260.9-1.4-.2c0-.4-.1-.7 1.2-.7-.2.4 0 .7.2.9"/><path fill="#737677" d="M154.8 261.7c-.3-.2.1-.4.3-.4h.1c.2.2-.2.4-.4.4"/><path fill="#f3f2f1" d="M276.6 260.3c-.4-.1-.6-.3-.5-.7h.7l-.2.7"/><path fill="#313234" d="M277 260.3h-.4l.2-.7h.7v.7h-.5"/><path fill="#f3f2f1" d="M193.8 260.3c-.3-.2.1-.4.3-.4h.1c.2.2-.2.4-.4.4"/><path fill="#313234" d="M298.6 260h-.1c-.2-.2.2-.4.4-.4.3.2-.1.4-.3.4m4.7-.4h-1v-.7h1v.7"/><path fill="#f28852" d="M282 259c-1-.8-.4-1.2.1-1.2.6 0 1 .4-.2 1.1"/><path fill="#313234" d="M304.3 258.6c0-.3.6-.3 1-.3 0 .3-.6.2-1 .3"/><path fill="#f3f2f1" d="M267.3 258.6h-1v-.7h1v.7m-72.8-.1c-.2 0-.3-.1-.3-.2 0-.2.1-.3.2-.3.2 0 .3.1.3.3l-.2.2"/><path fill="#f9d845" d="M438.6 257.8c-.2 0-.3-.1-.3-.2 0-.2.1-.2.2-.2.2 0 .3 0 .3.2l-.2.2"/><path fill="#737677" d="M182.7 256.9h-.2v-1.4h.2v1.4"/><path fill="#313234" d="M183.5 256.9h-.8v-1.4h.8v1.4"/><path fill="#f3f2f1" d="M455 256.6h-.1c-.2-.2.2-.4.4-.4.3.2-.1.4-.4.4"/><path fill="#f9d845" d="M439.3 256.2c0-.4.9-.3 1.4-.3 0 .4-.9.3-1.4.3m.9-1c0-.3.7-.3 1-.3 0 .3-.6.2-1 .3"/><path fill="#f28852" d="M337.3 255.2v-.3h.2s0 .2-.2.3"/><path fill="#313234" d="M337 255.2c-.2-.1 0-.3.2-.3l.1.3h-.2"/><path fill="#5f6264" d="M408 254.9c.3-.4.7-.7 1.5-.7.3.7-.6.6-1.4.7"/><path fill="#f9d845" d="M437.9 254.6c-.3-.2.1-.4.3-.4h.1c.2.1-.2.4-.4.4"/><path fill="#f7f7f6" d="M284.7 254.2c-.5 0-.7-.4-.6-.7 0-.3.3-.7.8-.7.2 0 .6.1.9.4v.7l-1 .3"/><path fill="#f9d845" d="M379 253.5h-.1c-.3-.1.2-.3.4-.3.3.1-.1.3-.4.3m52.1-.3c0-1.1.5-1.5 1-1.5.7 0 1.4 1.2-1 1.5"/><path fill="#f3f2f1" d="M205.7 252.4c-.2 0-.3-.1-.3-.2 0-.2.1-.3.2-.3.2 0 .3.1.3.3l-.2.2"/><path fill="#f9d845" d="M449 252.2c-.4-.1-.5-.4-1-.4.1-.3.5-.3.5-.7.4.1.5.4 1 .4 0 .3-.5.3-.5.7"/><path fill="#f3f2f1" d="M233.8 252.2h-.1c-.2-.2.2-.4.4-.4.3.2-.1.4-.3.4m225.5-.7c-.3-.2.1-.4.4-.4.3.2-.2.4-.4.4"/><path fill="#f9d845" d="M441.7 251.1h-1c-.2-.7.7-.6 1.5-.6 0 .2-.5.3-.5.6"/><path fill="#5f6264" d="M404.5 250.7c-.2 0-.3-.1-.3-.2 0-.2.1-.3.2-.3.2 0 .3.2.3.3l-.2.2"/><path fill="#f9d845" d="M369.6 250.5h-1v-.7h1v.7"/><path fill="#5f6264" d="M347.8 249.5h-.1c-.2-.2.2-.4.4-.4.3.2-.1.4-.3.4"/><path fill="#f7f7f6" d="M308.8 249.1c-.3-.1.1-.4.3-.4.3.2-.1.4-.3.4"/><path fill="#313234" d="M264.9 249c-.3 0-.5 0-.5-.2.2-.2.5-.3.7-.3.1 0 .2.1.2.3 0 .2-.2.3-.4.3"/><path fill="#f7f7f6" d="m293.9 248.3-.3-.1a1 1 0 0 0-.4-.1c0-.2.2-.3.4-.3s.5.1.5.3c0 .2-.1.2-.2.2m7.9-.3c-.5 0-1-.2-.9-1l.6-.2.6.2.8.1h.4c0 .5-.9 1-1.5 1"/><path fill="#f9d845" d="M387.6 247.8h-1.4v-1h1.4v1"/><path fill="#f7f7f6" d="M308.4 247.8c-.7 0-.6-.6-.7-1 .4 0 .5.3 1 .3v.7a2 2 0 0 1-.3 0"/><path fill="#f9d845" d="m251 245.3-.3-.2a1 1 0 0 0-.5 0c0-.3.3-.3.5-.3.3 0 .5 0 .5.2s-.1.3-.2.3"/><path fill="#5f6264" d="M268.8 245c-1.5-.1-.9-1-.4-1 .3 0 .5.3.4 1"/><path fill="#313234" d="M398.8 244.7h-1.4c-.2-.7.3-.9.5-1.4.8.1 1 .6 1 1.4m-217.9-.5.3-.3.5-.2-.3.3-.5.2m76.1-.5c-.3-.2.2-.4.4-.4.3.2-.1.4-.4.4"/><path fill="#5f6264" d="M198.1 243h-1v-.7h1v.7m-1.9-.3c-.3-.2.2-.4.4-.4.3.2-.1.4-.4.4"/><path fill="#a9aba8" d="M121.6 327c0-.4.1-1-.5-1 .1-.2.4-.3.6-.3 1 0 2.3 1.2 0 1.4"/><path fill="#f3f2f1" d="m274.6 393.7.3-.3.5-.3-.3.4-.5.2m-232.3.2c-.7 0-1-.3-1.5-.4-.2-.7.3-.9.4-1.4h.4c1.2 0 1.2.8 1.1 1.7a3 3 0 0 1-.4 0m-5.9-1.3h-1v-.7h1v.7m530.8-.3c-.6 0-.7-.4-1.2-.4.2-.3.5-.6.5-1 .8 0 1 .6 1 1.3h-.3M484 392l-1.3-.2c-.3-.7.9-.5 1-1 .5 0 .3.7 1 .7-.3.4-.4.5-.7.5m-244.7 0c-.1 0-.2 0-.2-.2s0-.2.2-.2c.1 0 .2 0 .2.2s0 .2-.2.2m-28.3-.5c-.5 0-.6-.3-.4-.6.2-.3.6-.5 1-.5h.2l-.5.7v.4h-.3m105.5-.7h-1v-.7h1v.7m-66.9-.5c-.2 0-.3 0-.3-.2s.1-.2.2-.2l.3.2c0 .2-.2.2-.2.2m-107 .1c0-.3.6-.2 1-.3 0 .3-.6.3-1 .3m218.4-.3h-.1c-.3-.1.2-.4.4-.4.3.2-.1.4-.3.4m86.1-.3c0-.4.6-.3 1-.4 0 .4-.6.3-1 .4m-297.2 0c0-.4.9-.3 1.5-.4-.1.4-1 .3-1.5.4m-5.8 0c-.3-.2.1-.4.4-.4.3.2-.2.4-.4.4m-70.9-.1-.3-.3.2-.2c.2 0 .3.1.3.2 0 .2-.1.3-.2.3m288.8-.2c-.5 0-.6-.4-.7-.7h.2c.3 0 .3-.2.3-.4.6 0 .5.6.5 1a2 2 0 0 1-.3 0m-13.8-.1.3-.3.5-.3-.3.4-.5.2m174.9-.3c-1.2 0-1.1-1.2-.5-1.6 1.3 0 1.2 1.3.5 1.7m-66.7-.3c0-.4.6-.3 1-.4 0 .3-.7.3-1 .4m-70.7 0h-1c-.2-.8.7-.7 1.5-.7 0 .2-.5.3-.5.7m170-.4h-1c-.2-.7.8-.6 1.5-.7 0 .3-.5.4-.5.7m2.9-.4c-.3 0-.5-.3-.5-.6 0-.4.2-.8.6-.8l.5.1c.2.7-.4 1-.5 1.4m-6.4-.1h-1v-.6h1v.7m27.9-.3c-.3-.2.1-.4.3-.4.3.1-.1.4-.3.4m-158.4-.4c.2-.4.6-.7 1.3-.7h.1c.3.7-.7.7-1.4.7m-44.3 0c-.3-.2.1-.4.3-.4h.1c.2.2-.2.4-.4.4"/><path fill="#a9aba8" d="M240.6 387.4c-.3-.2.1-.4.3-.4h.1c.2.2-.2.4-.4.4"/><path fill="#f3f2f1" d="M543.6 387c-.3 0-.5-.1-.5-.3l.7-.2c.1 0 .2 0 .3.2-.1.2-.3.3-.5.3m-84.3 0c-1.8-.2-.7-.8 0-.8.4 0 .7.2 0 .9m88.2-.7c-.2-.2.2-.4.4-.4.3.2-.1.4-.4.4"/><path fill="#a9aba8" d="M338 386h-1v-.6h1v.6"/><path fill="#f3f2f1" d="M56.3 385.4c-1.3 0-1.5-1-1-1.4 1 0 1.2.6 1 1.4"/><path fill="#a9aba8" d="M356.5 385h-2c.5-.7.2-2 1.8-2h.2v2m-98.5-.1.3-.3.5-.3-.3.4-.5.2"/><path fill="#f3f2f1" d="M35.5 385c-1.2 0-.3-1.4-.6-2 2.3 0 .7.8 1 2h-.4"/><path fill="#a9aba8" d="M193.8 384.7c-.3-.2.1-.4.4-.4.3.2-.2.4-.4.4"/><path fill="#f3f2f1" d="M24.3 384.7h-.1c-.2-.2.2-.4.4-.4.3.2-.1.4-.3.4"/><path fill="#a9aba8" d="M255.2 384c-.3-.1.1-.4.3-.4h.1c.2.2-.2.4-.4.4m145.7-.3c-.3-.2.1-.4.3-.4h.1c.2.2-.2.4-.4.4m-188.6 0c-.6 0-.4-.6-.5-1a2.3 2.3 0 0 1 1-.2h.3c.3 0 .6 0 1.1-.2 0 .9-1.9.5-2 1.4"/><path fill="#f3f2f1" d="M20.3 383.7c-.7-.3-1.5-.5-1.5-1.4h2c.2.7-.3 1-.5 1.4m110.1-.4c-.4 0-.5-.3-1-.3.1-.3.4-.4.7-.4.6 0 1.2.4.3.7m-51.1 0c0-.3.6-.2 1-.3 0 .3-.7.3-1 .3"/><path fill="#a9aba8" d="M204 383c-.2-.2.2-.4.4-.4.3.2-.1.4-.3.4"/><path fill="#f3f2f1" d="M507.6 382.7c-.3-.2.1-.4.3-.4h.1c.2.2-.2.4-.4.4"/><path fill="#a9aba8" d="M354.4 382.6c-.4 0-.8-.1-.8-.3-.3-.4.2-.6.7-.6.4 0 .9.2.7.6 0 .2-.3.3-.6.3m-5.2.1c-1-.1-1-.9-1-1.7l.4-.1c1 0 .4 1.2.6 1.8"/><path fill="#f3f2f1" d="M517.3 382c-.3-.2.2-.4.4-.4.3.2-.1.4-.4.4m-39.9-1c-.3-.2.1-.4.3-.4h.1c.2.2-.2.4-.4.4m-393.7 0c-.3-.2.1-.4.3-.4h.1c.2.2-.2.4-.4.4"/><path fill="#a9aba8" d="M289.1 380.6c-.3 0-.6 0-.8-.2a2 2 0 0 0-1-.1c0-.5.6-.7 1.4-.7h.5v1m-33.3-.1-.3-.2c0-.2.2-.2.3-.2 0 0 .2 0 .2.2l-.2.2"/><path fill="#f3f2f1" d="M87.1 380.6c-.3-.1.1-.3.4-.3.3.1-.2.3-.4.3"/><path fill="#a9aba8" d="M211 380.3h-.7c.4-.3.5-.8.5-1.4h2.4c-.6.6-.7 1.4-2.2 1.4"/><path fill="#f3f2f1" d="M114.8 380.3c-.6 0-1-.2-1-.7h1.5v.7h-.5m-5.1-.3h-.2c.3-1.1-1-1.1 0-1.8 1.2.2 2.2 1.7.2 1.7"/><path fill="#a9aba8" d="M298.5 379.6H297c-.1-.5.5-.6.5-1h1v1"/><path fill="#f3f2f1" d="M102.2 379.6c0-.3.5-.3 1-.3 0 .3-.7.2-1 .3m-52.8-.3c-.3 0-.5-.3-.4-.6 0-.3.2-.6.6-.6l.4.1v.7c-.3 0-.3.2-.4.4"/><path fill="#a9aba8" d="M469.1 379c-.3-.2.1-.4.3-.4h.1c.2.1-.2.3-.4.3m-4.5.1c-1.7-.4-.6-.9 0-.9.5 0 .7.2 0 .8m-79.4.1c-1-.3-1-.6-.5-1h1c.1.5-.5.5-.5 1"/><path fill="#f3f2f1" d="M481.8 378.6h-.1c-.2-.2.2-.4.4-.4.3.2-.1.4-.3.4"/><path fill="#a9aba8" d="M392.6 378.6c-.3-.2.1-.4.3-.4h.1c.2.2-.2.4-.4.4m-242.1 0h-.1c-.2-.2.2-.4.4-.4.3.2-.1.4-.3.4m320.9-.5.3-.3.5-.3-.3.4-.5.2m-153.6 0h-.3a1 1 0 0 0-.4-.2c0-.2.2-.3.4-.3.3 0 .5.1.5.3 0 .2-.1.2-.2.2m-18.8.2c-.2-.2.2-.4.4-.4.3.2-.1.4-.3.4"/><path fill="#f3f2f1" d="M491.4 378c-1-.3-1-.6-.5-1.1h1c.2.5-.4.6-.5 1"/><path fill="#a9aba8" d="M126.1 378c-.3-.2.1-.5.3-.5h.1c.2.2-.2.4-.4.4"/><path fill="#f3f2f1" d="M102.2 377.6c-.3-.2.1-.4.4-.4.3.2-.1.4-.4.4m-24.9-.1c-.2 0-.5 0-.5-.3l.2-.2.3.1.4.1c0 .2-.2.3-.4.3"/><path fill="#a9aba8" d="M278 377.2h-1v-.6h1v.6"/><path fill="#f3f2f1" d="M82.7 377.2h-1v-.6h1v.6m452.6-.3c0-.4.9-.3 1.4-.3 0 .3-.8.2-1.4.3"/><path fill="#a9aba8" d="M290.5 376.8c-.2 0-.3-.1-.3-.2 0-.2.2-.3.2-.3.2 0 .3.1.3.3l-.2.2"/><path fill="#f3f2f1" d="M18.8 376.5c-.2 0-.4-.1-.4-.3 0-.1 0-.2.2-.2l.3.1.4.1c0 .2-.2.3-.5.3m38.8-.5-.3-.1c0-.2.2-.2.3-.2 0 0 .2 0 .2.2l-.2.2"/><path fill="#a9aba8" d="m224.2 375.8-.2-.3c0-.1 0-.2.2-.2l.2.2c0 .2 0 .3-.2.3"/><path fill="#f3f2f1" d="M507.5 375.5c-.2 0-.5-.1-.5-.3l.7-.2c.2 0 .3 0 .3.2s-.3.3-.5.3"/><path fill="#a9aba8" d="M273.7 375.5h-1v-.6h1v.6m-102.7.1h-.1c-.3-.2.1-.4.4-.4.3.1-.2.4-.4.4m-19.8-.2-.2-.2c0-.2.1-.2.2-.2s.3 0 .3.2-.2.2-.3.2m-44.8 0-.2-.2c0-.2 0-.2.2-.2.1 0 .2 0 .2.2s0 .2-.2.2m339.8-.6c-.2 0-.5-.1-.5-.3l.7-.2c.2 0 .3 0 .3.2s-.3.3-.5.3m-39.4.1c-.3-.2.2-.4.4-.4.3.2-.1.4-.4.4m-78.2 0c-.6 0-.7-.4-1.3-.4.1-.3.5-.3.5-.7h1v1h-.2m-157.6-.3h-1c-.2-.7.7-.6 1.4-.7 0 .3-.5.4-.4.7m290.4-.3c-.3-.2.1-.4.3-.4h.1c.2.2-.2.4-.4.4m-169.1 0h-2c.8-1-.7-1.6 1.5-1.7-.4 1 .7.9.5 1.7m-141.2 0h-.1c-.2-.2.2-.4.4-.4.3.2-.1.4-.3.4m-44.9 0c-.3-.2.1-.4.4-.4.3.2-.2.4-.4.4m369.3-.7c0-.3.5-.3 1-.3 0 .3-.7.2-1 .3m-202.2-.6c-.7 0-1-.3-1-.8h1.5v.7h-.5m-83.2 0h-.1c-.3-.1.1-.3.4-.3.2.1-.2.3-.4.3"/><path fill="#f3f2f1" d="M72 372.8c-.3-.1.1-.3.3-.3h.1c.2.1-.2.3-.4.3"/><path fill="#a9aba8" d="M294.7 372.5h-.1c-.2-.2.2-.4.4-.4.3.2-.1.4-.3.4m-168.2-.1c-.3 0-.7 0-1-.3.1-.4.5-.6 1-.6.3 0 .7.1 1 .3 0 .5-.5.6-1 .6"/><path fill="#f3f2f1" d="M571.8 372.1c-.2 0-.5-.1-.5-.3l.7-.2c.2 0 .3 0 .3.2s-.3.3-.5.3m-49.4-.1c-.1 0-.3 0-.3-.2s.2-.2.3-.2l.2.2c0 .2-.1.2-.2.2"/><path fill="#a9aba8" d="M299.5 372.1h-1v-.6h1v.6"/><path fill="#f3f2f1" d="M72 372.2c-.3-.2.1-.4.3-.4h.1c.2.2-.2.4-.4.4m-2.5-.1c.2-.4.6-.6 1.4-.6.3.7-.6.6-1.4.6m468.5-.4-.3-.2c0-.2.2-.3.2-.3.2 0 .3.2.3.3l-.2.2m-20.3.1h-1c.2-.3-.1-.3-.4-.3 0-.4.4-.5.7-.6l1-.3c.1.3 0 .7-.3 1.2"/><path fill="#a9aba8" d="M517 370.9c.2-.2.4-.4.3-.8l.7.5-1 .3m-5.3.4c-.2 0-.3 0-.3-.2l.2-.2c.2 0 .3.1.3.2 0 .2-.1.2-.2.2m-233.7.2c-.8-.8-.2-1.1.3-1.1s1 .4-.3 1m22.4-.3c0-.3.6-.2 1-.3 0 .3-.6.3-1 .3m-37 0h-1v-.6h1v.6m-72.8-.1-.3-.2c0-.2.2-.2.3-.2.1 0 .2 0 .2.2s-.1.2-.2.2"/><path fill="#f3f2f1" d="M69.8 370.7c-.2 0-.3-.1-.3-.2 0-.2.1-.3.2-.3.2 0 .3.1.3.3l-.2.2"/><path fill="#a9aba8" d="M434.7 370.3c-.1 0-.3 0-.3-.2s.2-.2.3-.2l.2.2c0 .2-.1.2-.2.2m-305.7-.2c-.3-.1.1-.3.3-.3h.1c.3.1-.2.3-.4.3"/><path fill="#f3f2f1" d="M52.5 370.1c0-.3.6-.3 1-.3 0 .3-.7.2-1 .3m-21.9 0c-.3-.1.1-.3.3-.3h.1c.2.1-.2.3-.4.3"/><path fill="#a9aba8" d="M179.6 369.4h-1v-1.3h1v1.3m271.4-.3c-.2-.2.2-.4.4-.4.3.2-.1.4-.3.4"/><path fill="#f3f2f1" d="M555.7 368.8c0-.4.6-.3 1-.4 0 .4-.6.3-1 .4"/><path fill="#a9aba8" d="M435.4 368.8c0-.4.9-.3 1.5-.4-.1.4-1 .3-1.5.4M74.9 368c-1.4 0-.8-.8-.3-.8.2 0 .4.2.3.9"/><path fill="#f3f2f1" d="M553.3 367.7h-2c.3-.6 2-.2 1.5-1.3.7 0 .4.8.5 1.3"/><path fill="#a9aba8" d="M436.4 367.7c0-.3.6-.2 1-.3 0 .3-.6.3-1 .3m-103.2.1h-.1c-.2-.2.2-.4.4-.4.3.2-.1.4-.3.4m-207.2-.1h-1v-1h1.5c.2.6-.4.6-.5 1m335.6-.3c-.3 0-.5-.3-.5-.6 0-.2.3-.5.7-.5h.4v.8h-.1c-.3 0-.4.1-.4.3m-57.5 0c.2-.4.6-.7 1.4-.7.3.7-.6.7-1.4.7m122.9-.4c-.2 0-.4 0-.6-.3v-.7h.5c.6 0 .8.3.8.5 0 .3-.3.6-.7.6M434 367c-.3 0 .1-.3.3-.3h.1c.2.2-.2.4-.4.4m-153.1-.4c-.6 0-.8-.3-.7-.7 0-.3.3-.6.8-.6.3 0 .6 0 1 .3v.7l-1.1.3"/><path fill="#f3f2f1" d="M564.4 366.1c-1.4 0-1.7-1.2-.9-1.7 1 .2 1.9.5 1.5 1.6l-.6.1"/><path fill="#a9aba8" d="M375 366c-.2-.1.2-.3.4-.3.3.2-.1.4-.3.4"/><path fill="#f3f2f1" d="M23.3 366c-.3-.1.1-.3.3-.3h.1c.2.2-.2.4-.4.4"/><path fill="#a9aba8" d="M427.1 365.7c0-1 .5-1.5 1-1.5.8 0 1.4 1.2-1 1.5"/><path fill="#f3f2f1" d="M21.9 365.7h-.1c-.3-.1.2-.4.4-.4.3.2-.1.4-.3.4"/><path fill="#a9aba8" d="m201.8 365-.3-.3c0-.2.2-.2.3-.2.1 0 .2 0 .2.2s-.1.2-.2.2m265.8-.2h-1v-1h1.4c.2.5-.4.6-.4 1m-22.4 0c-.4 0-.5-.3-1-.3 0-.3.5-.4.5-.7.4 0 .5.3 1 .3-.2.3-.5.4-.5.7m-215.3 0c-.3-.2 0-.4.3-.4.3.2-.1.4-.3.4m-99.2-.1c-.2 0-.3-.1-.3-.2 0-.2.1-.3.2-.3.2 0 .3.1.3.3l-.2.2"/><path fill="#f3f2f1" d="M548.5 364.4c-.3-.2.1-.4.3-.4h.1c.2.2-.2.4-.4.4"/><path fill="#a9aba8" d="M455.5 364h-.1c-.2-.1.2-.3.4-.3.3.1-.1.3-.3.3m-17.7-.3h-1c-.2-.8.8-.7 1.5-.7 0 .3-.5.3-.5.7m-37.2-.5c-.1 0-.3 0-.3-.2s.2-.2.3-.2c0 0 .2 0 .2.2s-.1.2-.2.2m-34.9-.2h-1v-.7h1v.7m-240.6 0c-.3-.2.1-.4.4-.4.3.2-.2.4-.4.4m218.8-1c-.3-.2.1-.4.3-.4.3.2-.1.4-.3.4M115 362c-.5 0-.6-.3-1.2-.4 0-.2.3-.4.7-.4.6 0 1.3.3.8.8h-.2m189.9-.3h-.2c-.2-.2.2-.4.4-.4h.1c.2.2-.2.4-.4.4m-43.9-.1c-.3 0-.5-.1-.5-.3l.7-.2c.1 0 .2 0 .3.2 0 .2-.3.3-.5.3m-200.3-.3c0-.3.6-.3 1-.3 0 .3-.6.2-1 .3"/><path fill="#f3f2f1" d="M25.2 361.3h-1c.8-.7-.4-.7.5-1.4.7.1.2 1 1 1 0 .3-.2.4-.5.4"/><path fill="#a9aba8" d="M290 360.8h-.3a1 1 0 0 0-.4-.2c0-.2.2-.3.4-.3.3 0 .5.1.5.3 0 .2-.1.2-.2.2"/><path fill="#f3f2f1" d="M33.5 361H32c-.2-.7.3-1 .5-1.4.8 0 1.1.6 1 1.4"/><path fill="#a9aba8" d="M297.9 360.6c-.5 0-1-.3-.9-1 .3-.2.5-.2.7-.2l.5.1.8.1h.5c-.1.5-1 1-1.6 1m-241.8-.1-.2-.2c0-.2.1-.2.2-.2s.3 0 .3.2l-.3.2m327.7-.2h-1.5v-1h1.5v1m-79.3 0c-.7 0-.6-.6-.6-1 .4 0 .4.3 1 .3v.7h-.4"/><path fill="#f3f2f1" d="M31.1 360c-.3-.2.1-.4.3-.4h.1c.2.2-.2.4-.4.4m550.9-1.4h-1.4c-.1-.8.1-1.4 1.2-1.4h.3v1.4"/><path fill="#a9aba8" d="M95.4 358.6c-.3-.2.1-.4.3-.4h.1c.2.2-.2.4-.4.4m-.6-.3h-1.4v-1.4h.6c1 0 1 .6.8 1.4m450.1-.3h-.4c.4-.4.6-.9.5-1.4 1.3 0 1.2 1.3-.1 1.3m-297.8-.1-.3-.1a1 1 0 0 0-.4-.1c0-.2.2-.3.5-.3.2 0 .4 0 .4.3 0 .1 0 .2-.2.2m-167.8.2c-.3-.2.2-.4.4-.4.3.1-.1.3-.4.3m185.6-.3c-1.5-.2-.9-1-.4-1 .3 0 .5.2.4 1"/><path fill="#f3f2f1" d="M32.3 357.6c-.6 0-.7-.3-1.3-.4 0-.2.3-.4.7-.4.6 0 1.2.3.8.8h-.2"/><path fill="#a9aba8" d="M462.8 357.3h-.1c-.2-.2.2-.4.4-.4.3.1-.1.4-.3.4m-67.8-.1h-1.5c-.2-.7.3-.9.5-1.3.8 0 1.1.6 1 1.3m-217.8-.4c-.1 0 0-.2.2-.3l.6-.3-.3.4a2 2 0 0 1-.5.2m-52.4-.2c-.8 0-.7-.6-.7-1 .4 0 .5.3 1 .3v.7h-.3m-19.8 0c0-.4.7-.3 1-.4 0 .3-.5.3-1 .4m148.3-.4h-.1c-.2-.1.2-.3.4-.3.3.1-.1.3-.3.3"/><path fill="#f3f2f1" d="M27.2 356.2c-.3-.1.1-.3.3-.3h.1c.2.1-.2.3-.4.3"/><path fill="#a9aba8" d="M465.1 355.9h-1v-.7h1v.7m-270.9-.4h-1v-.6h1v.6m-75.2.1c-.6 0-.7-.4-1.3-.4 0-.3.3-.4.7-.4.6 0 1.3.3.8.7h-.2m73.4-.3h-.1c-.2-.1.2-.4.4-.4.3.2-.1.4-.3.4m-64.9 0c0-.3.6-.3 1-.3 0 .3-.6.2-1 .3"/><path fill="#f3f2f1" d="m31.4 365.7-.7-.1-.4-.1c-.1 0-.2 0-.3.2-1 0 .4-1 1.3-1h.2v1h-.1m-2.3-7.9c-.7 0-1.8-.3-1.5-1h.4c.9 0 .7.8 1.6.8 0 .1-.2.2-.5.2"/></svg>