<svg id="Layer_1" data-name="Layer 1" xmlns="http://www.w3.org/2000/svg" viewBox="0 0 72.19 68.31"><defs><style>.cls-1{fill:#231f20;}.cls-2{fill:#ed1c24;}.cls-3{fill:none;stroke:#231f20;stroke-linecap:square;stroke-miterlimit:2;stroke-width:0.39px;}.cls-4{fill:#fff;}</style></defs><path class="cls-1" d="M23.43,29.37l-5.6-5.59c-.52-.52-1-.23-1.19.81s-1.42,7.07-1.42,7.07l-8.43.15c-1,0-1.19.37-.82,1.27s3.59,9.18,3.59,9.18L4.78,46.57c-.52.45-.3.75.08,1.12S21.11,60.74,21.11,60.74l-3.73,9.32c-.37.9.23,1,.52,1H35.28l1.5-3.89" transform="translate(-3.6 -3.6)"/><path class="cls-2" d="M23.43,29.37l-5.6-5.59c-.52-.52-1-.23-1.19.81s-1.42,7.07-1.42,7.07l-8.43.15c-1,0-1.19.37-.82,1.27s3.59,9.18,3.59,9.18L4.78,46.57c-.52.45-.3.75.08,1.12S21.11,60.74,21.11,60.74l-3.73,9.32c-.37.9.23,1,.52,1H35.28l1.5-3.89" transform="translate(-3.6 -3.6)"/><path class="cls-1" d="M35.28,71.91H17.9a1.44,1.44,0,0,1-1.29-.61,1.63,1.63,0,0,1,0-1.57L20.06,61C15.84,57.65,4.6,48.67,4.24,48.31A1.77,1.77,0,0,1,3.6,47a1.57,1.57,0,0,1,.61-1.12L8.52,42c-.73-1.88-3-7.87-3.35-8.61a1.91,1.91,0,0,1,0-1.8,1.89,1.89,0,0,1,1.63-.68l7.71-.13c.32-1.62,1.1-5.55,1.28-6.39s.61-1.53,1.22-1.71a1.42,1.42,0,0,1,1.45.46l6.22,6.21-1.24,1.24-5.92-5.92a.29.29,0,0,1,0,.09c-.22,1-1.4,7-1.41,7a.87.87,0,0,1-.84.7l-8.43.15h0a.14.14,0,0,0,0,.06c.37.89,3.46,8.87,3.59,9.21a.87.87,0,0,1-.23,1L5.5,47.1c.72.62,10,8,16.16,13a.87.87,0,0,1,.26,1l-3.63,9.09H34.68L36.27,66l1.64.62L36.1,71.35A.89.89,0,0,1,35.28,71.91Z" transform="translate(-3.6 -3.6)"/><path class="cls-2" d="M43,67.14,44.45,71H61.3c.9-.29.83-.88.68-1.4s-3.52-8.89-3.52-8.89l15.68-13c.45-.52,1.17-.82.5-1.41-.38-.35-5.06-4.23-5.06-4.23l4-9c.37-.9.07-1.27-.52-1.27s-9-.3-9-.3l-1-7.06c-.08-.75-.45-1.27-1.34-.52s-5.68,5.45-5.68,5.45" transform="translate(-3.6 -3.6)"/><path class="cls-1" d="M61.44,71.9H43.84l-1.65-4.46,1.64-.61,1.23,3.32H61.14l0,0a.83.83,0,0,0-.06-.26c-.13-.43-2.2-5.63-3.48-8.8l-.24-.6L73.53,47.11l.31-.32-4.82-4-.51-.42,4.3-9.58s0,0,0,0c-1.66,0-8.41-.28-8.73-.29l-.73,0-1-7.7c-.82.71-4,3.77-5.56,5.34L55.53,28.8c.2-.19,4.82-4.73,5.74-5.49A1.56,1.56,0,0,1,64,24.41l.86,6.31c3,.1,7.71.26,8.19.26a1.5,1.5,0,0,1,1.32.64,1.89,1.89,0,0,1,0,1.84l-3.77,8.39c1.23,1,4.26,3.54,4.57,3.83a1.48,1.48,0,0,1,.57,1.1,1.73,1.73,0,0,1-.73,1.27,3.19,3.19,0,0,0-.26.26l-.11.1L59.51,61c.88,2.18,3.17,7.9,3.31,8.39a1.82,1.82,0,0,1-1.25,2.48Z" transform="translate(-3.6 -3.6)"/><path class="cls-1" d="M52.87,26.68,54,13.17c.07-1-.23-1.35-1-1.05s-6.71,2.54-6.71,2.54l-5.6-9.4h0c-.37-.59-.67-1.49-1.79.15S33,14.66,33,14.66l-6.48-2.6c-.31-.21-1-.11-.83,1.48.16,1.26,1,13.23,1,13.23" transform="translate(-3.6 -3.6)"/><path class="cls-2" d="M52.87,26.68,54,13.17c.07-1-.23-1.35-1-1.05s-6.71,2.54-6.71,2.54l-5.6-9.4h0c-.37-.59-.67-1.49-1.79.15S33,14.66,33,14.66l-6.48-2.6c-.31-.21-1-.11-.83,1.48.16,1.26,1,13.23,1,13.23" transform="translate(-3.6 -3.6)"/><path class="cls-1" d="M25.9,27.7l-.06-.88c-.28-4.12-.85-12.19-1-13.17-.18-1.46.3-2.08.73-2.35a1.35,1.35,0,0,1,1.36,0l5.73,2.29c1.17-1.85,4.58-7.27,5.52-8.65.46-.67,1-1.35,1.82-1.32a1.7,1.7,0,0,1,1.34,1l.1.16h0a.35.35,0,0,0,.05.08l.11.18h0l5.07,8.52c1.59-.59,5.43-2,6-2.27a1.55,1.55,0,0,1,1.57.09,2.06,2.06,0,0,1,.6,1.83l-1.2,14.4-1.74-.15,1.19-14.39a.17.17,0,0,0,0-.07c-1.29.5-6.28,2.37-6.5,2.46a.87.87,0,0,1-1.06-.37l-5.48-9.2A1.29,1.29,0,0,1,40,5.75l0,0-.09-.14-.23.32c-1.1,1.61-5.83,9.15-5.88,9.22a.86.86,0,0,1-1.06.35L26.58,13a2.15,2.15,0,0,0,0,.42c.16,1.27,1,12.79,1,13.28l.06.87Z" transform="translate(-3.6 -3.6)"/><path class="cls-1" d="M39.75,67.33c12.64,0,22.89-10,22.89-22.25S52.39,22.83,39.75,22.83s-22.88,10-22.88,22.25S27.12,67.33,39.75,67.33" transform="translate(-3.6 -3.6)"/><path class="cls-3" d="M39.75,67.33c12.64,0,22.89-10,22.89-22.25S52.39,22.83,39.75,22.83s-22.88,10-22.88,22.25S27.12,67.33,39.75,67.33Z" transform="translate(-3.6 -3.6)"/><polyline class="cls-4" points="27.81 21.81 35.57 40.81 15.8 33.58 23.86 41.41 16.1 49.83 35.71 42 27.8 61.23 36.15 53.63 44.58 61.16 36.68 42 56.36 49.89 48.46 41.4 56.43 33.49 36.82 40.81 44.51 21.8 36.23 29.11 27.81 21.81"/></svg>